<svg xmlns="http://www.w3.org/2000/svg" xmlns:xlink="http://www.w3.org/1999/xlink" preserveAspectRatio="xMidYMid" width="44.594" height="36.656" viewBox="0 0 44.594 36.656">
  <defs>
    <style>
      .cls-1 {
        fill: #fff;
        fill-rule: evenodd;
      }
    </style>
  </defs>
  <path d="M43.665,32.978 L39.855,32.978 C39.423,35.064 37.549,36.639 35.309,36.643 C35.306,36.643 35.304,36.643 35.302,36.643 L29.726,36.643 C29.213,36.643 28.797,36.233 28.797,35.726 C28.797,35.221 29.213,34.810 29.726,34.810 L31.587,34.810 C31.181,34.278 30.889,33.655 30.749,32.978 L26.938,32.978 L13.834,32.978 C13.403,35.064 11.529,36.639 9.289,36.643 C9.286,36.643 9.284,36.643 9.282,36.643 L3.706,36.643 C3.193,36.643 2.777,36.233 2.777,35.726 C2.777,35.221 3.193,34.810 3.706,34.810 L5.567,34.810 C5.161,34.278 4.869,33.655 4.729,32.978 L0.919,32.978 C0.405,32.978 -0.011,32.568 -0.011,32.062 L-0.011,6.410 C-0.011,5.904 0.405,5.494 0.919,5.494 L2.392,5.494 L7.696,0.265 C8.059,-0.093 8.647,-0.093 9.010,0.265 L10.597,1.829 L23.221,1.829 C23.734,1.829 24.150,2.240 24.150,2.745 L24.150,5.494 L26.938,5.494 C27.451,5.494 27.867,5.904 27.867,6.410 L27.867,10.992 L37.160,10.992 C38.698,10.992 39.948,12.223 39.948,13.739 L39.948,14.733 C42.581,15.171 44.594,17.433 44.594,20.152 L44.594,23.817 L44.594,32.062 C44.594,32.568 44.178,32.978 43.665,32.978 ZM9.282,34.810 C10.819,34.810 12.069,33.578 12.069,32.062 C12.069,30.547 10.819,29.313 9.282,29.313 C7.745,29.313 6.494,30.547 6.494,32.062 C6.494,33.578 7.745,34.810 9.282,34.810 ZM9.555,3.394 C9.555,3.394 9.555,3.393 9.554,3.393 L8.353,2.208 L5.021,5.494 L11.685,5.494 L9.555,3.394 ZM22.292,3.661 L12.455,3.661 L14.314,5.494 L22.292,5.494 L22.292,3.661 ZM26.009,29.313 L19.689,29.313 C19.176,29.313 18.759,28.903 18.759,28.398 C18.759,27.891 19.176,27.482 19.689,27.482 L26.009,27.482 L26.009,11.906 L26.009,7.326 L2.778,7.326 C2.778,7.326 2.777,7.326 2.776,7.326 L1.848,7.326 L1.848,10.992 L12.999,10.992 C13.512,10.992 13.928,11.402 13.928,11.906 C13.928,12.413 13.512,12.823 12.999,12.823 L1.848,12.823 L1.848,14.656 L5.565,14.656 C6.078,14.656 6.494,15.066 6.494,15.571 C6.494,16.078 6.078,16.488 5.565,16.488 L1.848,16.488 L1.848,31.145 L4.729,31.145 C5.161,29.057 7.038,27.482 9.282,27.482 C11.526,27.482 13.403,29.057 13.834,31.145 L26.009,31.145 L26.009,29.313 ZM35.302,34.810 C36.838,34.810 38.088,33.578 38.089,32.065 C38.089,32.064 38.089,32.063 38.089,32.062 C38.089,32.060 38.089,32.060 38.089,32.059 C38.088,30.546 36.839,29.315 35.304,29.313 C35.303,29.313 35.302,29.313 35.302,29.313 L35.295,29.313 C33.761,29.318 32.514,30.549 32.514,32.062 C32.514,33.578 33.765,34.810 35.302,34.810 ZM27.867,31.145 L30.749,31.145 C30.889,30.469 31.181,29.846 31.587,29.313 L27.867,29.313 L27.867,31.145 ZM42.735,20.152 C42.735,18.131 41.068,16.488 39.019,16.488 L36.231,16.488 L36.231,22.900 L42.735,22.900 L42.735,20.152 ZM42.735,24.732 L31.585,24.732 C31.072,24.732 30.656,24.322 30.656,23.817 L30.656,15.571 C30.656,15.066 31.072,14.656 31.585,14.656 L38.090,14.656 L38.090,13.739 C38.090,13.234 37.673,12.823 37.160,12.823 L27.867,12.823 L27.867,27.482 L35.295,27.482 C35.297,27.482 35.299,27.482 35.302,27.482 C37.546,27.482 39.423,29.057 39.855,31.145 L42.735,31.145 L42.735,24.732 ZM34.373,22.900 L34.373,16.488 L32.514,16.488 L32.514,22.900 L34.373,22.900 ZM16.054,10.992 L16.634,10.992 C17.147,10.992 17.563,11.402 17.563,11.906 C17.563,12.413 17.147,12.823 16.634,12.823 L16.054,12.823 C15.541,12.823 15.124,12.413 15.124,11.906 C15.124,11.402 15.540,10.992 16.054,10.992 ZM16.054,27.482 L16.634,27.482 C17.147,27.482 17.563,27.891 17.563,28.398 C17.563,28.903 17.147,29.313 16.634,29.313 L16.054,29.313 C15.541,29.313 15.124,28.903 15.124,28.398 C15.124,27.891 15.540,27.482 16.054,27.482 Z" class="cls-1"/>
</svg>
