<svg xmlns="http://www.w3.org/2000/svg" xmlns:xlink="http://www.w3.org/1999/xlink" preserveAspectRatio="xMidYMid" width="50.75" height="51.188" viewBox="0 0 50.75 51.188">
  <defs>
    <style>
      .cls-1 {
        fill: #fff;
        fill-rule: evenodd;
      }
    </style>
  </defs>
  <path d="M13.476,32.419 C13.476,31.478 14.236,30.713 15.170,30.713 C16.105,30.713 16.864,31.478 16.864,32.419 C16.864,33.361 16.105,34.126 15.170,34.126 C14.236,34.126 13.476,33.360 13.476,32.419 ZM20.252,36.684 L20.252,24.740 C20.252,24.269 20.630,23.888 21.099,23.888 C21.567,23.888 21.946,24.270 21.946,24.740 L21.946,36.684 C21.946,37.156 21.567,37.538 21.099,37.538 C20.630,37.538 20.252,37.156 20.252,36.684 ZM25.334,27.301 C25.334,26.359 26.094,25.594 27.027,25.594 C27.962,25.594 28.722,26.359 28.722,27.301 C28.722,28.241 27.962,29.006 27.027,29.006 C26.094,29.006 25.334,28.241 25.334,27.301 ZM47.953,24.490 L22.800,49.863 C21.999,50.669 20.936,51.113 19.806,51.113 C18.674,51.113 17.611,50.669 16.812,49.864 L1.241,34.178 C0.440,33.372 -0.000,32.302 -0.000,31.161 C-0.000,30.022 0.440,28.951 1.241,28.145 L23.240,6.015 C17.490,4.697 13.918,4.608 12.872,4.917 C13.314,5.371 14.688,6.337 18.006,7.655 C18.440,7.827 18.654,8.323 18.483,8.761 C18.311,9.200 17.821,9.414 17.383,9.242 C10.517,6.515 10.919,5.004 11.070,4.434 C11.385,3.248 13.059,2.853 16.500,3.158 C19.299,3.403 22.912,4.097 26.673,5.113 C29.132,5.776 41.355,9.246 40.521,12.385 C40.216,13.528 38.632,13.670 38.111,13.716 C38.085,13.718 38.060,13.719 38.035,13.719 C37.601,13.719 37.232,13.384 37.193,12.941 C37.151,12.472 37.496,12.058 37.962,12.016 C38.323,11.985 38.563,11.935 38.718,11.891 C38.355,11.509 37.438,10.914 35.971,10.206 C35.664,10.728 35.497,11.328 35.497,11.943 C35.497,13.825 37.017,15.355 38.885,15.355 C40.753,15.355 42.272,13.825 42.272,11.943 C42.272,10.061 40.753,8.530 38.885,8.530 C38.417,8.530 38.038,8.148 38.038,7.677 C38.038,7.205 38.417,6.824 38.885,6.824 C41.687,6.824 43.967,9.120 43.967,11.943 C43.967,14.766 41.687,17.061 38.885,17.061 C36.082,17.061 33.803,14.766 33.803,11.943 C33.803,11.088 34.027,10.254 34.426,9.510 C32.399,8.652 29.680,7.692 26.234,6.761 C25.872,6.662 25.521,6.574 25.172,6.485 L2.438,29.353 C1.958,29.836 1.694,30.479 1.694,31.161 C1.694,31.845 1.958,32.488 2.438,32.971 L18.010,48.657 C18.967,49.623 20.642,49.624 21.602,48.657 L46.755,23.284 C48.405,21.623 49.048,20.117 49.048,17.915 L49.048,4.264 C49.048,2.853 47.908,1.705 46.507,1.705 L32.956,1.705 C30.771,1.705 29.276,2.352 27.626,4.014 C27.295,4.347 26.760,4.347 26.429,4.014 C26.098,3.681 26.098,3.141 26.429,2.809 C28.383,0.839 30.336,-0.002 32.956,-0.002 L46.507,-0.002 C48.842,-0.002 50.742,1.912 50.742,4.264 L50.742,17.915 C50.742,20.554 49.908,22.521 47.953,24.490 ZM27.752,47.913 L29.644,49.148 C30.821,49.831 32.377,49.411 33.078,48.188 L42.786,31.508 C43.022,31.100 43.541,30.963 43.945,31.203 C44.348,31.441 44.483,31.965 44.247,32.370 L34.542,49.046 C33.760,50.409 32.336,51.174 30.871,51.174 C30.152,51.174 29.425,50.990 28.760,50.602 L26.832,49.344 C26.440,49.089 26.327,48.560 26.582,48.165 C26.836,47.770 27.360,47.657 27.752,47.913 Z" class="cls-1"/>
</svg>
