<svg xmlns="http://www.w3.org/2000/svg" xmlns:xlink="http://www.w3.org/1999/xlink" preserveAspectRatio="xMidYMid" width="40.906" height="52" viewBox="0 0 40.906 52">
  <defs>
    <style>
      .cls-1 {
        fill: #fff;
        fill-rule: evenodd;
      }
    </style>
  </defs>
  <path d="M29.752,47.325 C26.936,49.480 23.892,51.042 20.708,51.966 C20.626,51.986 20.539,51.999 20.451,51.999 C20.369,51.999 20.282,51.986 20.200,51.966 C17.017,51.042 13.971,49.480 11.152,47.325 C4.168,41.969 -0.006,33.374 -0.006,24.328 L-0.006,7.776 C-0.006,7.298 0.393,6.913 0.885,6.913 C13.954,6.913 19.713,0.355 19.770,0.287 C20.109,-0.106 20.799,-0.106 21.134,0.287 C21.221,0.380 27.041,6.913 40.024,6.913 C40.514,6.913 40.914,7.303 40.914,7.781 L40.914,24.328 C40.914,33.374 36.740,41.969 29.752,47.325 ZM39.133,8.636 C28.244,8.403 22.354,3.873 20.451,2.095 C18.553,3.869 12.665,8.403 1.775,8.636 L1.775,24.328 C1.775,32.846 5.693,40.936 12.255,45.962 C14.818,47.925 17.576,49.360 20.451,50.230 C23.331,49.360 26.090,47.925 28.652,45.962 C35.216,40.932 39.133,32.846 39.133,24.328 L39.133,8.636 ZM26.455,43.235 C24.657,44.614 22.745,45.695 20.777,46.445 C20.674,46.486 20.565,46.505 20.451,46.505 C20.344,46.505 20.235,46.486 20.130,46.445 C18.163,45.695 16.252,44.612 14.454,43.235 C8.742,38.861 5.333,31.790 5.333,24.328 L5.333,12.659 C5.333,12.223 5.663,11.854 6.110,11.799 C12.695,10.982 17.272,8.692 19.952,6.918 C20.257,6.715 20.652,6.715 20.952,6.918 C23.636,8.692 28.214,10.982 34.799,11.799 C35.241,11.854 35.576,12.223 35.576,12.659 L35.576,24.328 C35.576,31.790 32.167,38.861 26.455,43.235 ZM33.795,13.416 C27.658,12.532 23.231,10.427 20.451,8.674 C17.672,10.427 13.246,12.532 7.108,13.416 L7.108,24.328 C7.108,31.262 10.266,37.821 15.552,41.872 C17.116,43.066 18.762,44.019 20.451,44.700 C22.146,44.019 23.792,43.066 25.356,41.872 C30.641,37.821 33.795,31.262 33.795,24.328 L33.795,13.416 ZM18.706,33.794 L18.676,33.794 C18.441,33.794 18.215,33.701 18.045,33.539 L10.931,26.600 C10.583,26.262 10.583,25.716 10.931,25.377 C11.278,25.039 11.838,25.039 12.186,25.377 L18.632,31.655 L30.459,18.480 C30.781,18.120 31.345,18.086 31.714,18.400 C32.083,18.717 32.123,19.263 31.798,19.623 L19.344,33.498 C19.184,33.675 18.949,33.785 18.706,33.794 Z" class="cls-1"/>
</svg>
