<svg xmlns="http://www.w3.org/2000/svg" xmlns:xlink="http://www.w3.org/1999/xlink" preserveAspectRatio="xMidYMid" width="47" height="47" viewBox="0 0 47 47">
  <defs>
    <style>
      .cls-1 {
        fill: #fff;
        fill-rule: evenodd;
      }
    </style>
  </defs>
  <path d="M19.571,41.204 L15.317,41.204 C14.907,41.204 14.574,40.872 14.574,40.463 C14.574,40.052 14.907,39.720 15.317,39.720 L19.571,39.720 C19.981,39.720 20.313,40.052 20.313,40.463 C20.313,40.872 19.981,41.204 19.571,41.204 ZM19.571,43.678 L15.317,43.678 C14.907,43.678 14.574,43.346 14.574,42.936 C14.574,42.526 14.907,42.194 15.317,42.194 L19.571,42.194 C19.981,42.194 20.313,42.526 20.313,42.936 C20.313,43.346 19.981,43.678 19.571,43.678 ZM45.690,46.998 L33.272,46.998 L33.272,46.998 C33.267,46.998 33.262,46.998 33.256,46.998 L23.540,46.998 C23.175,46.998 22.840,46.875 22.570,46.669 C22.262,46.877 21.891,46.998 21.493,46.998 L19.474,46.998 C19.064,46.998 18.732,46.667 18.732,46.256 C18.732,45.846 19.064,45.514 19.474,45.514 L21.493,45.514 C21.738,45.514 21.938,45.315 21.938,45.069 L21.938,29.039 C21.938,28.794 21.738,28.594 21.493,28.594 L15.025,28.594 L15.025,37.054 C15.025,37.339 14.863,37.599 14.607,37.721 C14.504,37.772 14.393,37.797 14.283,37.797 C14.119,37.797 13.957,37.742 13.823,37.636 L11.711,35.966 L9.599,37.636 C9.376,37.813 9.071,37.846 8.815,37.721 C8.559,37.599 8.397,37.339 8.397,37.054 L8.397,28.594 L1.929,28.594 C1.684,28.594 1.484,28.794 1.484,29.039 L1.484,45.069 C1.484,45.315 1.684,45.514 1.929,45.514 L16.934,45.514 C17.344,45.514 17.676,45.846 17.676,46.256 C17.676,46.667 17.344,46.998 16.934,46.998 L1.929,46.998 C0.865,46.998 -0.000,46.133 -0.000,45.069 L-0.000,29.039 C-0.000,28.592 0.155,28.180 0.412,27.852 C0.155,27.524 -0.000,27.113 -0.000,26.664 L-0.000,10.635 C-0.000,9.571 0.865,8.706 1.929,8.706 L8.397,8.706 L8.397,3.802 L8.397,1.302 C8.397,0.583 8.981,-0.002 9.700,-0.002 L22.118,-0.002 C22.837,-0.002 23.422,0.583 23.422,1.302 L23.422,3.802 L23.422,8.886 C23.422,9.179 23.323,9.449 23.159,9.668 C23.325,9.951 23.422,10.282 23.422,10.635 L23.422,16.631 C23.461,16.627 23.500,16.624 23.540,16.624 L28.647,16.624 L33.792,16.624 L38.899,16.624 C39.782,16.624 40.501,17.343 40.501,18.227 L40.501,26.467 C40.501,26.877 40.169,27.208 39.759,27.208 C39.349,27.208 39.017,26.877 39.017,26.467 L39.017,18.227 C39.017,18.162 38.964,18.109 38.899,18.109 L34.534,18.109 L34.534,26.569 C34.534,26.853 34.371,27.113 34.115,27.237 C34.013,27.286 33.902,27.311 33.792,27.311 C33.628,27.311 33.465,27.257 33.332,27.152 L31.220,25.482 L29.107,27.152 C28.884,27.327 28.580,27.360 28.324,27.237 C28.068,27.113 27.905,26.853 27.905,26.569 L27.905,18.109 L23.540,18.109 C23.475,18.109 23.422,18.162 23.422,18.227 L23.422,26.664 L23.422,29.039 L23.422,45.069 L23.422,45.396 C23.422,45.461 23.475,45.514 23.540,45.514 L31.969,45.514 L31.969,40.611 L31.969,38.112 C31.969,37.392 32.554,36.807 33.273,36.807 L39.017,36.807 L39.017,28.941 C39.017,28.530 39.349,28.198 39.759,28.198 C40.169,28.198 40.501,28.530 40.501,28.941 L40.501,36.807 L45.690,36.807 C46.409,36.807 46.994,37.392 46.994,38.111 L46.994,40.611 L46.994,45.695 C46.994,46.414 46.409,46.998 45.690,46.998 ZM9.881,35.521 L11.251,34.438 C11.386,34.333 11.548,34.279 11.711,34.279 C11.874,34.279 12.036,34.333 12.171,34.438 L13.541,35.521 L13.541,28.594 L9.881,28.594 L9.881,35.521 ZM21.938,1.484 L9.881,1.484 L9.881,3.061 L21.938,3.061 L21.938,1.484 ZM21.938,4.544 L9.881,4.544 L9.881,8.705 L14.283,8.705 L21.493,8.705 L21.938,8.705 L21.938,4.544 ZM9.881,10.189 L9.881,17.117 L11.251,16.034 C11.386,15.927 11.548,15.874 11.711,15.874 C11.874,15.874 12.036,15.927 12.171,16.034 L13.541,17.117 L13.541,10.189 L9.881,10.189 ZM21.938,18.227 L21.938,10.635 C21.938,10.388 21.738,10.189 21.493,10.189 L15.025,10.189 L15.025,18.650 C15.025,18.933 14.863,19.194 14.607,19.318 C14.504,19.367 14.393,19.392 14.283,19.392 C14.119,19.392 13.957,19.338 13.823,19.233 L11.711,17.563 L9.599,19.233 C9.376,19.408 9.071,19.442 8.815,19.318 C8.559,19.194 8.397,18.933 8.397,18.650 L8.397,10.189 L1.929,10.189 C1.684,10.189 1.484,10.388 1.484,10.635 L1.484,26.664 C1.484,26.910 1.684,27.109 1.929,27.109 L9.139,27.109 L14.283,27.109 L21.493,27.109 C21.738,27.109 21.938,26.910 21.938,26.664 L21.938,18.227 ZM29.389,25.036 L30.760,23.953 C30.894,23.847 31.057,23.793 31.220,23.793 C31.382,23.793 31.545,23.847 31.680,23.953 L33.050,25.036 L33.050,18.109 L29.389,18.109 L29.389,25.036 ZM45.510,38.292 L39.759,38.292 L33.453,38.292 L33.453,39.869 L45.510,39.869 L45.510,38.292 ZM45.510,41.354 L33.453,41.354 L33.453,45.514 L45.510,45.514 L45.510,41.354 ZM37.595,42.589 L41.849,42.589 C42.259,42.589 42.592,42.922 42.592,43.332 C42.592,43.742 42.259,44.074 41.849,44.074 L37.595,44.074 C37.185,44.074 36.853,43.742 36.853,43.332 C36.853,42.922 37.185,42.589 37.595,42.589 ZM19.571,25.472 L15.317,25.472 C14.907,25.472 14.574,25.139 14.574,24.729 C14.574,24.320 14.907,23.988 15.317,23.988 L19.571,23.988 C19.981,23.988 20.313,24.320 20.313,24.729 C20.313,25.139 19.981,25.472 19.571,25.472 ZM19.571,22.999 L15.317,22.999 C14.907,22.999 14.574,22.665 14.574,22.255 C14.574,21.846 14.907,21.514 15.317,21.514 L19.571,21.514 C19.981,21.514 20.313,21.846 20.313,22.255 C20.313,22.665 19.981,22.999 19.571,22.999 ZM18.204,7.266 L13.950,7.266 C13.540,7.266 13.208,6.934 13.208,6.524 C13.208,6.113 13.540,5.781 13.950,5.781 L18.204,5.781 C18.614,5.781 18.946,6.113 18.946,6.524 C18.946,6.934 18.614,7.266 18.204,7.266 Z" class="cls-1"/>
</svg>
