<svg xmlns="http://www.w3.org/2000/svg" xmlns:xlink="http://www.w3.org/1999/xlink" preserveAspectRatio="xMidYMid" width="27" height="27" viewBox="0 0 27 27">
  <defs>
    <style>
      .cls-1 {
        fill: #fff;
        fill-rule: evenodd;
      }
    </style>
  </defs>
  <path d="M13.500,26.999 C6.056,26.999 -0.000,20.944 -0.000,13.499 C-0.000,6.054 6.056,-0.001 13.500,-0.001 C20.944,-0.001 27.000,6.054 27.000,13.499 C27.000,20.944 20.944,26.999 13.500,26.999 ZM13.500,0.900 C6.552,0.900 0.901,6.551 0.901,13.499 C0.901,20.447 6.552,26.098 13.500,26.098 C20.448,26.098 26.099,20.447 26.099,13.499 C26.099,6.551 20.448,0.900 13.500,0.900 ZM23.401,13.894 L22.950,13.894 C22.702,13.894 22.500,13.692 22.500,13.444 C22.500,13.196 22.702,12.994 22.950,12.994 L23.401,12.994 C23.649,12.994 23.849,13.196 23.849,13.444 C23.849,13.692 23.649,13.894 23.401,13.894 ZM20.500,20.894 C20.384,20.894 20.270,20.851 20.182,20.763 L19.863,20.444 C19.687,20.269 19.687,19.984 19.863,19.810 C20.039,19.631 20.325,19.631 20.500,19.810 L20.819,20.126 C20.995,20.302 20.995,20.588 20.819,20.763 C20.731,20.851 20.614,20.894 20.500,20.894 ZM20.500,7.080 C20.412,7.168 20.298,7.212 20.182,7.212 C20.068,7.212 19.951,7.168 19.863,7.080 C19.687,6.905 19.687,6.620 19.863,6.443 L20.182,6.126 C20.357,5.949 20.643,5.949 20.819,6.126 C20.995,6.300 20.995,6.587 20.819,6.762 L20.500,7.080 ZM13.500,15.244 C12.663,15.244 11.964,14.667 11.764,13.894 L8.549,13.894 C8.301,13.894 8.099,13.692 8.099,13.444 C8.099,13.196 8.301,12.994 8.549,12.994 L11.764,12.994 C11.927,12.365 12.421,11.873 13.049,11.708 L13.049,7.144 C13.049,6.896 13.252,6.694 13.500,6.694 C13.748,6.694 13.951,6.896 13.951,7.144 L13.951,11.708 C14.724,11.910 15.299,12.607 15.299,13.444 C15.299,14.437 14.493,15.244 13.500,15.244 ZM13.500,12.546 C13.003,12.546 12.599,12.947 12.599,13.444 C12.599,13.940 13.003,14.344 13.500,14.344 C13.997,14.344 14.401,13.940 14.401,13.444 C14.401,12.947 13.997,12.546 13.500,12.546 ZM13.500,4.444 C13.252,4.444 13.049,4.245 13.049,3.993 L13.049,3.545 C13.049,3.294 13.252,3.095 13.500,3.095 C13.748,3.095 13.951,3.294 13.951,3.545 L13.951,3.993 C13.951,4.245 13.748,4.444 13.500,4.444 ZM6.818,20.763 C6.730,20.851 6.616,20.894 6.500,20.894 C6.385,20.894 6.269,20.851 6.181,20.763 C6.005,20.588 6.005,20.302 6.181,20.126 L6.500,19.810 C6.675,19.634 6.961,19.631 7.137,19.810 C7.312,19.984 7.312,20.269 7.137,20.444 L6.818,20.763 ZM6.818,7.212 C6.702,7.212 6.587,7.168 6.500,7.080 L6.181,6.762 C6.005,6.587 6.005,6.300 6.181,6.126 C6.357,5.949 6.643,5.949 6.818,6.126 L7.137,6.443 C7.312,6.620 7.312,6.905 7.137,7.080 C7.049,7.168 6.932,7.212 6.818,7.212 ZM13.500,22.443 C13.748,22.443 13.951,22.645 13.951,22.894 L13.951,23.345 C13.951,23.593 13.748,23.795 13.500,23.795 C13.252,23.795 13.049,23.593 13.049,23.345 L13.049,22.894 C13.049,22.645 13.252,22.443 13.500,22.443 ZM4.049,13.894 L3.599,13.894 C3.351,13.894 3.151,13.692 3.151,13.444 C3.151,13.196 3.351,12.994 3.599,12.994 L4.049,12.994 C4.298,12.994 4.500,13.196 4.500,13.444 C4.500,13.692 4.298,13.894 4.049,13.894 Z" class="cls-1"/>
</svg>
