<svg xmlns="http://www.w3.org/2000/svg" xmlns:xlink="http://www.w3.org/1999/xlink" preserveAspectRatio="xMidYMid" width="24" height="25" viewBox="0 0 24 25">
  <defs>
    <style>
      .cls-1 {
        fill: #fff;
        fill-rule: evenodd;
      }
    </style>
  </defs>
  <path d="M23.346,21.639 L22.219,22.814 C20.826,24.263 19.290,24.991 17.636,24.991 C17.167,24.991 16.688,24.932 16.202,24.814 C14.364,24.374 12.406,23.081 10.387,20.978 L3.842,14.170 C1.822,12.067 0.583,10.029 0.157,8.117 C-0.354,5.822 0.294,3.713 2.080,1.855 L3.208,0.682 C3.894,-0.033 4.931,-0.193 5.787,0.278 C7.478,1.209 9.309,4.438 9.386,4.573 C9.711,5.170 9.816,5.783 9.677,6.303 C9.572,6.694 9.336,7.010 8.988,7.226 C8.445,7.698 7.810,8.284 7.710,8.429 C6.999,9.523 7.082,10.393 7.993,11.341 L13.103,16.662 C13.206,16.768 13.307,16.861 13.410,16.945 C13.431,16.964 13.458,16.983 13.482,17.003 C14.253,17.612 14.998,17.591 15.904,16.952 C16.041,16.850 16.604,16.190 17.058,15.624 C17.265,15.264 17.571,15.016 17.947,14.909 C18.445,14.766 19.033,14.872 19.603,15.209 C19.740,15.292 22.842,17.198 23.735,18.955 C24.190,19.847 24.033,20.925 23.346,21.639 ZM22.949,19.389 C22.173,17.866 19.186,16.029 19.157,16.010 C18.810,15.805 18.445,15.726 18.184,15.803 C18.023,15.849 17.901,15.953 17.812,16.120 L17.766,16.190 C17.449,16.583 16.682,17.524 16.404,17.720 C16.086,17.942 15.776,18.104 15.470,18.213 C16.110,18.496 16.858,18.729 17.686,18.820 C17.932,18.847 18.110,19.073 18.084,19.328 C18.060,19.566 17.867,19.743 17.642,19.743 C17.627,19.743 17.610,19.743 17.595,19.740 C14.527,19.409 12.519,17.381 12.434,17.293 C12.417,17.278 12.410,17.255 12.397,17.235 L7.602,12.248 C7.591,12.238 7.578,12.237 7.569,12.228 C7.464,12.139 5.059,10.043 4.737,6.823 C4.714,6.571 4.889,6.341 5.135,6.315 C5.381,6.294 5.598,6.475 5.624,6.728 C5.720,7.678 6.032,8.526 6.404,9.236 C6.491,8.801 6.682,8.358 6.975,7.908 C7.164,7.616 8.068,6.821 8.447,6.490 L8.514,6.441 C8.675,6.349 8.775,6.222 8.818,6.054 C8.890,5.783 8.814,5.403 8.614,5.036 C8.599,5.012 6.836,1.905 5.370,1.098 C5.176,0.988 4.966,0.937 4.759,0.937 C4.423,0.937 4.090,1.074 3.838,1.338 L2.708,2.511 C1.133,4.152 0.581,5.916 1.024,7.908 C1.411,9.650 2.571,11.536 4.472,13.515 L11.015,20.325 C12.916,22.301 14.729,23.509 16.402,23.912 C18.316,24.374 20.013,23.801 21.589,22.160 L22.718,20.985 C23.125,20.561 23.218,19.919 22.949,19.389 ZM14.383,10.663 L18.651,10.663 C18.896,10.663 19.094,10.871 19.094,11.126 C19.094,11.381 18.896,11.590 18.651,11.590 L13.310,11.590 C13.251,11.590 13.194,11.578 13.140,11.554 C13.031,11.509 12.945,11.419 12.899,11.302 C12.877,11.246 12.864,11.187 12.864,11.126 L12.864,5.571 C12.864,5.313 13.064,5.107 13.310,5.107 C13.556,5.107 13.755,5.313 13.755,5.571 L13.755,10.010 L20.561,2.928 C20.735,2.746 21.015,2.746 21.189,2.928 C21.365,3.107 21.365,3.399 21.189,3.581 L14.383,10.663 Z" class="cls-1"/>
</svg>
