<svg xmlns="http://www.w3.org/2000/svg" xmlns:xlink="http://www.w3.org/1999/xlink" preserveAspectRatio="xMidYMid" width="70.97" height="58" viewBox="0 0 70.97 58">
  <defs>
    <style>
      .cls-1 {
        fill: #f4a305;
        fill-rule: evenodd;
      }
    </style>
  </defs>
  <path d="M67.428,53.975 C67.191,56.224 65.062,58.000 62.696,58.000 C62.578,58.000 62.341,58.000 62.223,58.000 L7.571,51.845 C5.137,51.623 3.349,49.534 3.415,47.135 C1.452,46.558 -0.000,44.756 -0.000,42.611 L-0.000,16.571 L-0.000,7.101 L-0.000,4.735 C-0.000,2.130 2.129,-0.001 4.732,-0.001 L59.147,-0.001 C61.750,-0.001 63.879,2.130 63.879,4.735 L63.879,7.101 L63.879,10.427 L66.718,10.771 C68.019,10.890 69.084,11.481 69.912,12.546 C70.740,13.493 71.095,14.795 70.977,15.979 L67.428,53.975 ZM2.366,42.611 C2.366,43.914 3.431,44.979 4.732,44.979 L4.850,44.979 L59.147,44.979 C60.449,44.979 61.513,43.914 61.513,42.611 L61.513,17.754 L2.366,17.754 L2.366,42.611 ZM61.513,4.735 C61.513,3.432 60.449,2.367 59.147,2.367 L4.732,2.367 C3.431,2.367 2.366,3.432 2.366,4.735 L2.366,5.917 L61.513,5.917 L61.513,4.735 ZM61.513,8.285 L2.366,8.285 L2.366,15.387 L61.513,15.387 L61.513,11.363 L61.513,8.285 ZM68.138,13.730 C67.783,13.256 67.191,12.901 66.600,12.901 L63.879,12.664 L63.879,16.571 L63.879,42.611 C63.879,45.216 61.750,47.346 59.147,47.346 L5.796,47.346 C5.915,48.411 6.743,49.359 7.926,49.477 L62.460,55.632 C63.761,55.750 64.944,54.803 65.062,53.501 L68.611,15.506 C68.729,14.914 68.493,14.204 68.138,13.730 ZM56.781,40.245 L37.854,40.245 C37.145,40.245 36.671,39.771 36.671,39.061 L36.671,28.408 C36.671,27.698 37.145,27.224 37.854,27.224 L56.781,27.224 C57.491,27.224 57.964,27.698 57.964,28.408 L57.964,39.061 C57.964,39.771 57.491,40.245 56.781,40.245 ZM55.599,29.591 L39.037,29.591 L39.037,37.877 L55.599,37.877 L55.599,29.591 ZM29.574,29.591 L26.025,29.591 C25.315,29.591 24.842,29.118 24.842,28.408 C24.842,27.698 25.315,27.224 26.025,27.224 L29.574,27.224 C30.283,27.224 30.757,27.698 30.757,28.408 C30.757,29.118 30.283,29.591 29.574,29.591 ZM29.574,24.856 L20.110,24.856 C19.400,24.856 18.927,24.383 18.927,23.673 C18.927,22.963 19.400,22.490 20.110,22.490 L29.574,22.490 C30.283,22.490 30.757,22.963 30.757,23.673 C30.757,24.383 30.283,24.856 29.574,24.856 ZM15.378,24.856 L5.915,24.856 C5.205,24.856 4.732,24.383 4.732,23.673 C4.732,22.963 5.205,22.490 5.915,22.490 L15.378,22.490 C16.088,22.490 16.561,22.963 16.561,23.673 C16.561,24.383 16.088,24.856 15.378,24.856 ZM5.915,27.224 L21.293,27.224 C22.003,27.224 22.476,27.698 22.476,28.408 C22.476,29.118 22.003,29.591 21.293,29.591 L5.915,29.591 C5.205,29.591 4.732,29.118 4.732,28.408 C4.732,27.698 5.205,27.224 5.915,27.224 Z" class="cls-1"/>
</svg>
