<svg xmlns="http://www.w3.org/2000/svg" xmlns:xlink="http://www.w3.org/1999/xlink" preserveAspectRatio="xMidYMid" width="66" height="66" viewBox="0 0 66 66">
  <defs>
    <style>
      .cls-1 {
        fill: #f4a305;
        fill-rule: evenodd;
      }
    </style>
  </defs>
  <path d="M64.899,65.999 L31.899,65.999 C31.239,65.999 30.797,65.559 30.797,64.897 L30.797,23.100 C30.797,22.439 31.239,21.999 31.899,21.999 L64.899,21.999 C65.560,21.999 66.000,22.439 66.000,23.100 L66.000,64.897 C66.000,65.559 65.560,65.999 64.899,65.999 ZM63.797,24.202 L33.000,24.202 L33.000,26.398 L46.203,26.398 L46.203,28.600 L33.000,28.600 L33.000,30.797 L63.797,30.797 L63.797,24.202 ZM63.797,32.999 L33.000,32.999 L33.000,63.796 L63.797,63.796 L63.797,32.999 ZM40.701,42.899 L36.297,42.899 L36.297,40.702 L40.701,40.702 L40.701,42.899 ZM40.701,47.298 L36.297,47.298 L36.297,45.101 L40.701,45.101 L40.701,47.298 ZM40.701,51.702 L36.297,51.702 L36.297,49.500 L40.701,49.500 L40.701,51.702 ZM40.701,56.100 L36.297,56.100 L36.297,53.898 L40.701,53.898 L40.701,56.100 ZM40.701,60.499 L36.297,60.499 L36.297,58.297 L40.701,58.297 L40.701,60.499 ZM38.500,35.202 L41.797,35.202 L41.797,37.399 L38.500,37.399 L38.500,35.202 ZM47.297,42.899 L42.899,42.899 L42.899,40.702 L47.297,40.702 L47.297,42.899 ZM47.297,47.298 L42.899,47.298 L42.899,45.101 L47.297,45.101 L47.297,47.298 ZM47.297,51.702 L42.899,51.702 L42.899,49.500 L47.297,49.500 L47.297,51.702 ZM47.297,56.100 L42.899,56.100 L42.899,53.898 L47.297,53.898 L47.297,56.100 ZM47.297,60.499 L42.899,60.499 L42.899,58.297 L47.297,58.297 L47.297,60.499 ZM52.797,37.399 L49.500,37.399 L49.500,35.202 L52.797,35.202 L52.797,37.399 ZM53.899,42.899 L49.500,42.899 L49.500,40.702 L53.899,40.702 L53.899,42.899 ZM53.899,47.298 L49.500,47.298 L49.500,45.101 L53.899,45.101 L53.899,47.298 ZM53.899,51.702 L49.500,51.702 L49.500,49.500 L53.899,49.500 L53.899,51.702 ZM53.899,56.100 L49.500,56.100 L49.500,53.898 L53.899,53.898 L53.899,56.100 ZM53.899,60.499 L49.500,60.499 L49.500,58.297 L53.899,58.297 L53.899,60.499 ZM58.297,37.399 L55.000,37.399 L55.000,35.202 L58.297,35.202 L58.297,37.399 ZM60.500,42.899 L56.101,42.899 L56.101,40.702 L60.500,40.702 L60.500,42.899 ZM60.500,47.298 L56.101,47.298 L56.101,45.101 L60.500,45.101 L60.500,47.298 ZM60.500,51.702 L56.101,51.702 L56.101,49.500 L60.500,49.500 L60.500,51.702 ZM60.500,56.100 L56.101,56.100 L56.101,53.898 L60.500,53.898 L60.500,56.100 ZM60.500,60.499 L56.101,60.499 L56.101,58.297 L60.500,58.297 L60.500,60.499 ZM44.000,35.202 L47.297,35.202 L47.297,37.399 L44.000,37.399 L44.000,35.202 ZM51.701,28.600 L48.399,28.600 L48.399,26.398 L51.701,26.398 L51.701,28.600 ZM52.797,2.202 L15.399,2.202 L15.399,14.297 C15.399,14.958 14.959,15.398 14.297,15.398 L2.203,15.398 L2.203,26.398 L-0.000,26.398 L-0.000,14.297 C-0.000,14.189 0.107,14.077 0.107,13.970 L0.107,13.857 C0.220,13.750 0.220,13.642 0.327,13.529 L13.530,0.326 C13.643,0.219 13.750,0.219 13.857,0.106 L13.970,0.106 C14.077,-0.001 14.190,-0.001 14.297,-0.001 L53.899,-0.001 C54.560,-0.001 55.000,0.440 55.000,1.100 L55.000,17.601 L52.797,17.601 L52.797,2.202 ZM13.203,3.737 L3.739,13.203 L13.203,13.203 L13.203,3.737 ZM1.101,30.797 L14.297,30.797 C14.959,30.797 15.399,31.239 15.399,31.898 L15.399,47.296 L27.500,47.296 C28.160,47.296 28.601,47.737 28.601,48.398 L28.601,64.897 C28.601,65.559 28.160,65.999 27.500,65.999 L1.101,65.999 C0.440,65.999 -0.000,65.559 -0.000,64.897 L-0.000,31.898 C-0.000,31.239 0.440,30.797 1.101,30.797 ZM15.399,63.796 L26.399,63.796 L26.399,60.499 L15.399,60.499 L15.399,63.796 ZM15.399,58.297 L26.399,58.297 L26.399,54.999 L15.399,54.999 L15.399,58.297 ZM15.399,52.797 L26.399,52.797 L26.399,49.500 L15.399,49.500 L15.399,52.797 ZM2.203,63.796 L13.203,63.796 L13.203,60.499 L2.203,60.499 L2.203,63.796 ZM2.203,58.297 L13.203,58.297 L13.203,54.999 L2.203,54.999 L2.203,58.297 ZM2.203,52.797 L13.203,52.797 L13.203,49.500 L2.203,49.500 L2.203,52.797 ZM2.203,47.296 L13.203,47.296 L13.203,43.999 L2.203,43.999 L2.203,47.296 ZM2.203,41.796 L13.203,41.796 L13.203,38.499 L2.203,38.499 L2.203,41.796 ZM2.203,36.296 L13.203,36.296 L13.203,32.999 L2.203,32.999 L2.203,36.296 ZM49.500,5.499 L49.500,7.702 L41.797,7.702 L41.797,5.499 L49.500,5.499 ZM49.500,13.203 L29.703,13.203 L29.703,10.999 L49.500,10.999 L49.500,13.203 Z" class="cls-1"/>
</svg>
