<svg xmlns="http://www.w3.org/2000/svg" xmlns:xlink="http://www.w3.org/1999/xlink" preserveAspectRatio="xMidYMid" width="140" height="140" viewBox="0 0 140 140">
  <defs>
    <style>
      .cls-1 {
        fill: #f4a305;
        fill-rule: evenodd;
      }
    </style>
  </defs>
  <g>
    <path d="M106.777,130.956 C105.629,132.514 103.884,133.292 101.540,133.292 C99.235,133.292 97.499,132.533 96.332,131.015 C95.165,129.497 94.567,127.248 94.538,124.269 L94.538,120.578 C94.538,117.512 95.112,115.211 96.259,113.679 C97.407,112.146 99.157,111.378 101.511,111.378 C103.845,111.378 105.585,112.126 106.733,113.620 C107.880,115.114 108.469,117.350 108.498,120.329 L108.498,124.020 C108.498,127.087 107.924,129.399 106.777,130.956 ZM104.938,120.036 C104.938,118.034 104.665,116.566 104.118,115.634 C103.571,114.701 102.702,114.235 101.511,114.235 C100.348,114.235 99.494,114.677 98.947,115.561 C98.400,116.444 98.112,117.823 98.083,119.699 L98.083,124.533 C98.083,126.525 98.361,128.009 98.918,128.986 C99.475,129.962 100.348,130.451 101.540,130.451 C102.683,130.451 103.527,130.000 104.074,129.096 C104.621,128.192 104.909,126.779 104.938,124.855 L104.938,120.036 ZM84.540,133.292 C82.235,133.292 80.499,132.533 79.332,131.015 C78.165,129.497 77.567,127.248 77.538,124.269 L77.538,120.578 C77.538,117.512 78.112,115.211 79.259,113.679 C80.407,112.146 82.157,111.378 84.511,111.378 C86.845,111.378 88.585,112.126 89.733,113.620 C90.880,115.114 91.469,117.350 91.498,120.329 L91.498,124.020 C91.498,127.087 90.924,129.399 89.777,130.956 C88.629,132.514 86.884,133.292 84.540,133.292 ZM87.938,120.036 C87.938,118.034 87.665,116.566 87.118,115.634 C86.571,114.701 85.702,114.235 84.511,114.235 C83.348,114.235 82.494,114.677 81.947,115.561 C81.400,116.444 81.112,117.823 81.083,119.699 L81.083,124.533 C81.083,126.525 81.361,128.009 81.918,128.986 C82.475,129.962 83.348,130.451 84.540,130.451 C85.683,130.451 86.527,130.000 87.074,129.096 C87.621,128.192 87.909,126.779 87.938,124.855 L87.938,120.036 ZM67.540,133.292 C65.235,133.292 63.499,132.533 62.332,131.015 C61.165,129.497 60.567,127.248 60.538,124.269 L60.538,120.578 C60.538,117.512 61.112,115.211 62.259,113.679 C63.407,112.146 65.157,111.378 67.511,111.378 C69.845,111.378 71.585,112.126 72.733,113.620 C73.880,115.114 74.469,117.350 74.498,120.329 L74.498,124.020 C74.498,127.087 73.924,129.399 72.777,130.956 C71.629,132.514 69.884,133.292 67.540,133.292 ZM70.938,120.036 C70.938,118.034 70.665,116.566 70.118,115.634 C69.571,114.701 68.702,114.235 67.511,114.235 C66.348,114.235 65.494,114.677 64.947,115.561 C64.400,116.444 64.112,117.823 64.083,119.699 L64.083,124.533 C64.083,126.525 64.361,128.009 64.918,128.986 C65.475,129.962 66.348,130.451 67.540,130.451 C68.683,130.451 69.527,130.000 70.074,129.096 C70.621,128.192 70.909,126.779 70.938,124.855 L70.938,120.036 ZM43.540,133.292 C41.235,133.292 39.499,132.533 38.332,131.015 C37.165,129.497 36.567,127.248 36.538,124.269 L36.538,120.578 C36.538,117.512 37.112,115.211 38.259,113.679 C39.407,112.146 41.157,111.378 43.511,111.378 C45.845,111.378 47.585,112.126 48.733,113.620 C49.880,115.114 50.469,117.350 50.498,120.329 L50.498,124.020 C50.498,127.087 49.924,129.399 48.777,130.956 C47.629,132.514 45.884,133.292 43.540,133.292 ZM46.938,120.036 C46.938,118.034 46.665,116.566 46.118,115.634 C45.571,114.701 44.702,114.235 43.511,114.235 C42.348,114.235 41.494,114.677 40.947,115.561 C40.400,116.444 40.112,117.823 40.083,119.699 L40.083,124.533 C40.083,126.525 40.361,128.009 40.918,128.986 C41.475,129.962 42.348,130.451 43.540,130.451 C44.683,130.451 45.527,130.000 46.074,129.096 C46.621,128.192 46.909,126.779 46.938,124.855 L46.938,120.036 ZM26.540,133.292 C24.235,133.292 22.499,132.533 21.332,131.015 C20.165,129.497 19.567,127.248 19.538,124.269 L19.538,120.578 C19.538,117.512 20.112,115.211 21.259,113.679 C22.407,112.146 24.157,111.378 26.511,111.378 C28.845,111.378 30.585,112.126 31.733,113.620 C32.880,115.114 33.469,117.350 33.498,120.329 L33.498,124.020 C33.498,127.087 32.924,129.399 31.777,130.956 C30.629,132.514 28.884,133.292 26.540,133.292 ZM29.938,120.036 C29.938,118.034 29.665,116.566 29.118,115.634 C28.571,114.701 27.702,114.235 26.511,114.235 C25.348,114.235 24.494,114.677 23.947,115.561 C23.400,116.444 23.112,117.823 23.083,119.699 L23.083,124.533 C23.083,126.525 23.361,128.009 23.918,128.986 C24.475,129.962 25.348,130.451 26.540,130.451 C27.683,130.451 28.527,130.000 29.074,129.096 C29.621,128.192 29.909,126.779 29.938,124.855 L29.938,120.036 ZM16.308,127.023 C16.308,128.937 15.651,130.461 14.337,131.593 C13.024,132.726 11.298,133.292 9.159,133.292 C7.108,133.292 5.429,132.745 4.120,131.652 C2.811,130.558 2.157,129.103 2.157,127.287 L5.717,127.287 C5.717,128.224 6.032,128.986 6.662,129.571 C7.291,130.158 8.139,130.451 9.203,130.451 C10.306,130.451 11.176,130.158 11.811,129.571 C12.445,128.986 12.763,128.137 12.763,127.023 C12.763,125.900 12.431,125.036 11.767,124.431 C11.102,123.825 10.116,123.522 8.808,123.522 L6.713,123.522 L6.713,120.710 L8.881,120.710 C9.974,120.700 10.841,120.416 11.481,119.860 C12.120,119.303 12.440,118.498 12.440,117.443 C12.440,116.428 12.174,115.639 11.642,115.078 C11.110,114.516 10.297,114.235 9.203,114.235 C8.246,114.235 7.460,114.511 6.845,115.063 C6.229,115.615 5.922,116.335 5.922,117.223 L2.362,117.223 C2.362,116.129 2.653,115.133 3.234,114.235 C3.815,113.337 4.625,112.636 5.666,112.133 C6.706,111.630 7.870,111.378 9.159,111.378 C11.288,111.378 12.960,111.913 14.176,112.983 C15.392,114.052 16.000,115.539 16.000,117.443 C16.000,118.400 15.695,119.301 15.084,120.145 C14.474,120.991 13.686,121.627 12.719,122.057 C13.891,122.458 14.782,123.087 15.392,123.947 C16.002,124.806 16.308,125.831 16.308,127.023 Z" transform="translate(15.75 3.35)" class="cls-1"/>
    <path d="M82.928,99.989 L63.907,99.989 C63.156,99.989 62.548,99.373 62.548,98.614 L62.548,94.425 C59.350,95.107 56.055,95.457 52.748,95.457 C48.261,95.457 43.856,94.829 39.628,93.588 L39.628,98.614 C39.628,99.373 39.018,99.989 38.269,99.989 L20.869,99.989 C20.118,99.989 19.511,99.373 19.511,98.614 L19.511,80.702 C17.196,77.920 15.362,74.855 14.076,71.606 L6.343,71.606 C6.261,71.606 6.181,71.598 6.101,71.584 C6.041,71.590 5.977,71.595 5.915,71.598 C2.829,71.769 0.239,68.138 0.013,63.382 C-0.090,61.242 0.314,59.186 1.142,57.589 C1.890,56.151 2.925,55.195 4.114,54.813 C4.297,54.713 4.501,54.660 4.713,54.660 L4.814,54.660 C4.912,54.646 5.008,54.638 5.106,54.633 L5.108,54.665 L5.106,54.633 C5.334,54.622 5.560,54.630 5.780,54.660 L12.382,54.660 C13.598,47.307 16.114,42.447 21.087,37.814 L19.022,28.894 C18.900,28.369 19.093,27.821 19.515,27.490 C19.938,27.160 20.511,27.112 20.981,27.366 L28.660,31.491 C35.395,27.112 43.494,24.895 52.748,24.895 C74.041,24.895 91.582,39.028 93.445,57.001 C94.549,56.541 96.149,55.687 97.803,54.186 C100.746,51.508 101.294,48.431 101.300,48.402 C101.425,47.651 102.125,47.150 102.866,47.279 C103.606,47.404 104.105,48.114 103.978,48.864 C103.949,49.029 103.258,52.923 99.615,56.235 C97.226,58.404 94.921,59.431 93.610,59.882 C93.610,59.980 93.610,60.079 93.610,60.176 C93.610,68.358 90.303,76.301 84.287,82.602 L84.287,98.616 C84.287,99.373 83.680,99.989 82.928,99.989 L82.928,99.989 ZM72.611,97.237 L81.570,97.237 L81.570,82.041 C81.570,81.675 81.713,81.326 81.968,81.068 C87.724,75.221 90.892,67.801 90.892,60.176 C90.892,42.238 73.781,27.648 52.748,27.648 C43.757,27.648 35.953,29.849 29.552,34.190 L23.480,39.335 C18.314,43.956 15.983,48.536 14.893,56.229 C14.795,56.907 14.224,57.412 13.547,57.412 L9.479,57.412 C10.352,58.848 10.917,60.743 11.019,62.848 C11.130,65.162 10.655,67.280 9.771,68.854 L20.683,68.854 C20.707,68.854 20.731,68.854 20.752,68.854 C20.843,68.861 23.286,68.929 25.014,66.961 C25.261,66.676 25.614,66.512 25.988,66.499 C26.362,66.476 26.726,66.632 26.988,66.901 L28.387,68.315 C28.917,68.854 28.917,69.727 28.387,70.261 C27.854,70.799 26.994,70.799 26.466,70.261 L25.996,69.788 C23.684,71.622 21.055,71.619 20.662,71.606 L17.026,71.606 C19.195,76.519 22.753,80.938 27.408,84.473 C27.750,84.734 27.951,85.140 27.951,85.575 L27.951,97.239 L36.911,97.239 L36.911,91.720 C36.911,91.277 37.121,90.863 37.476,90.605 C37.829,90.344 38.285,90.274 38.699,90.414 C43.189,91.936 47.915,92.705 52.748,92.705 C58.998,92.705 65.204,91.379 70.695,88.877 C71.114,88.683 71.602,88.721 71.993,88.976 C72.377,89.228 72.614,89.665 72.614,90.131 L72.614,97.237 L72.611,97.237 ZM65.265,97.237 L69.894,97.237 L69.894,92.204 C68.389,92.804 66.842,93.322 65.265,93.761 L65.265,97.237 ZM22.228,97.237 L25.234,97.237 L25.234,86.255 C24.176,85.422 23.172,84.546 22.228,83.632 L22.228,97.237 ZM2.920,64.824 C3.410,67.264 4.671,68.899 5.783,68.848 C5.843,68.845 5.905,68.837 5.966,68.824 C5.982,68.818 5.995,68.815 6.011,68.810 C6.045,68.801 6.083,68.791 6.120,68.777 C7.032,68.450 7.901,66.995 8.197,64.991 C7.218,64.944 6.433,64.119 6.433,63.114 C6.433,62.154 7.149,61.361 8.068,61.251 C7.858,60.278 7.513,59.393 7.064,58.703 C6.613,58.009 6.098,57.563 5.605,57.426 C5.557,57.415 5.512,57.404 5.464,57.396 C5.448,57.393 5.432,57.390 5.414,57.387 C5.363,57.383 5.310,57.383 5.263,57.380 C5.228,57.387 5.193,57.393 5.159,57.398 L5.146,57.402 C5.106,57.407 5.069,57.410 5.029,57.417 C5.008,57.423 4.987,57.426 4.965,57.432 C4.456,57.585 3.951,58.096 3.546,58.875 C3.182,59.568 2.932,60.425 2.805,61.358 C3.506,61.628 4.005,62.313 4.005,63.114 C4.005,63.872 3.559,64.528 2.920,64.824 L2.920,64.824 ZM8.235,62.242 C7.784,62.270 7.426,62.652 7.426,63.114 C7.426,63.597 7.813,63.991 8.288,63.991 L8.296,63.991 C8.311,63.663 8.311,63.326 8.296,62.980 C8.282,62.732 8.261,62.485 8.235,62.242 L8.235,62.242 ZM2.718,62.458 C2.712,62.721 2.715,62.985 2.729,63.251 C2.736,63.412 2.747,63.573 2.760,63.732 C2.917,63.573 3.013,63.355 3.013,63.114 C3.013,62.853 2.899,62.619 2.718,62.458 L2.718,62.458 ZM22.350,31.217 L23.414,35.803 L26.314,33.346 L22.350,31.217 ZM27.426,54.617 C25.086,54.617 23.183,52.689 23.183,50.318 C23.183,47.951 25.086,46.020 27.426,46.020 C29.764,46.020 31.667,47.951 31.667,50.318 C31.667,52.689 29.764,54.617 27.426,54.617 L27.426,54.617 ZM27.426,48.773 C26.585,48.773 25.900,49.467 25.900,50.318 C25.900,51.170 26.585,51.863 27.426,51.863 C28.265,51.863 28.949,51.170 28.949,50.318 C28.949,49.467 28.265,48.773 27.426,48.773 L27.426,48.773 ZM43.646,48.987 L43.646,48.987 C42.895,48.987 42.287,48.373 42.287,47.611 C42.287,47.561 42.276,42.461 41.284,38.033 C40.811,35.929 40.381,34.652 40.093,33.934 C38.964,34.241 37.030,34.940 35.568,36.397 C34.053,37.907 33.161,39.857 33.153,39.878 C32.840,40.566 32.036,40.872 31.354,40.558 C30.672,40.243 30.369,39.430 30.680,38.738 C30.722,38.639 31.776,36.313 33.663,34.434 C36.507,31.601 40.490,31.023 40.660,31.002 C41.151,30.935 41.640,31.141 41.934,31.548 C42.099,31.771 42.964,33.107 43.932,37.424 C44.994,42.160 45.004,47.394 45.004,47.615 C45.004,48.373 44.396,48.987 43.646,48.987 L43.646,48.987 ZM61.633,33.741 C61.452,33.741 61.269,33.705 61.091,33.628 C61.059,33.615 57.930,32.268 53.602,32.268 C49.221,32.268 45.479,33.642 45.443,33.655 C44.739,33.918 43.959,33.553 43.699,32.841 C43.438,32.128 43.800,31.338 44.503,31.074 C44.673,31.010 48.717,29.517 53.602,29.517 C58.527,29.517 62.028,31.038 62.176,31.104 C62.864,31.408 63.177,32.216 62.877,32.916 C62.654,33.432 62.155,33.741 61.633,33.741 L61.633,33.741 ZM53.289,19.607 C47.955,19.607 43.614,15.211 43.614,9.809 C43.614,4.405 47.955,0.008 53.289,0.008 C58.623,0.008 62.965,4.403 62.965,9.809 C62.965,15.211 58.623,19.607 53.289,19.607 L53.289,19.607 ZM53.289,2.761 C49.452,2.761 46.331,5.921 46.331,9.809 C46.331,13.692 49.455,16.855 53.289,16.855 C57.127,16.855 60.248,13.692 60.248,9.809 C60.248,5.921 57.127,2.761 53.289,2.761 L53.289,2.761 Z" transform="translate(15.75 3.35)" class="cls-1"/>
  </g>
</svg>
