<?xml version="1.0" encoding="UTF-8" standalone="no"?>
<svg
   xmlns:dc="http://purl.org/dc/elements/1.1/"
   xmlns:cc="http://creativecommons.org/ns#"
   xmlns:rdf="http://www.w3.org/1999/02/22-rdf-syntax-ns#"
   xmlns:svg="http://www.w3.org/2000/svg"
   xmlns="http://www.w3.org/2000/svg"
   xmlns:sodipodi="http://sodipodi.sourceforge.net/DTD/sodipodi-0.dtd"
   xmlns:inkscape="http://www.inkscape.org/namespaces/inkscape"
   preserveAspectRatio="xMidYMid"
   width="140"
   height="140"
   viewBox="0 0 140 140"
   version="1.1"
   id="svg12"
   sodipodi:docname="bl12_i4.svg"
   inkscape:version="1.0.1 (3bc2e813f5, 2020-09-07)">
  <metadata
     id="metadata16">
    <rdf:RDF>
      <cc:Work
         rdf:about="">
        <dc:format>image/svg+xml</dc:format>
        <dc:type
           rdf:resource="http://purl.org/dc/dcmitype/StillImage" />
      </cc:Work>
    </rdf:RDF>
  </metadata>
  <sodipodi:namedview
     pagecolor="#ffffff"
     bordercolor="#666666"
     borderopacity="1"
     objecttolerance="10"
     gridtolerance="10"
     guidetolerance="10"
     inkscape:pageopacity="0"
     inkscape:pageshadow="2"
     inkscape:window-width="1366"
     inkscape:window-height="716"
     id="namedview14"
     showgrid="false"
     inkscape:zoom="3.9142857"
     inkscape:cx="70"
     inkscape:cy="70"
     inkscape:window-x="-8"
     inkscape:window-y="-8"
     inkscape:window-maximized="1"
     inkscape:current-layer="svg12" />
  <defs
     id="defs4">
    <style
       id="style2">
      .cls-1 {
        fill: #f4a305;
        fill-rule: evenodd;
      }
    </style>
  </defs>
  <g
     id="g10">
    <path
       d="M98.531,17.484 L98.531,4.371 L94.185,4.371 L94.185,0.005 L79.685,0.005 L79.685,4.371 L78.233,4.371 L78.233,0.005 L63.733,0.005 L63.733,4.371 L62.281,4.371 L62.281,0.005 L47.781,0.005 L47.781,4.371 L46.329,4.371 L46.329,0.005 L31.829,0.005 L31.829,4.371 L30.377,4.371 L30.377,0.005 L15.877,0.005 L15.877,4.371 L11.531,4.371 L11.531,17.484 L15.877,17.484 L15.877,65.538 L11.531,65.538 L11.531,78.643 L15.877,78.643 L15.877,83.017 L30.377,83.017 L30.377,78.643 L31.829,78.643 L31.829,83.017 L46.329,83.017 L46.329,78.643 L47.781,78.643 L47.781,83.017 L62.281,83.017 L62.281,78.643 L63.733,78.643 L63.733,83.017 L78.233,83.017 L78.233,78.643 L79.685,78.643 L79.685,83.017 L94.185,83.017 L94.185,78.643 L98.531,78.643 L98.531,65.538 L94.185,65.538 L94.185,17.484 L98.531,17.484 ZM95.627,7.287 L95.627,14.569 L94.185,14.569 L94.185,7.287 L95.627,7.287 ZM79.685,7.287 L79.685,14.569 L78.233,14.569 L78.233,7.287 L79.685,7.287 ZM79.685,17.484 L79.685,65.538 L78.233,65.538 L78.233,17.484 L79.685,17.484 ZM63.733,7.287 L63.733,14.569 L62.281,14.569 L62.281,7.287 L63.733,7.287 ZM63.733,17.484 L63.733,65.538 L62.281,65.538 L62.281,17.484 L63.733,17.484 ZM47.781,7.287 L47.781,14.569 L46.329,14.569 L46.329,7.287 L47.781,7.287 ZM47.781,17.484 L47.781,65.538 L46.329,65.538 L46.329,17.484 L47.781,17.484 ZM31.829,7.287 L31.829,14.569 L30.377,14.569 L30.377,7.287 L31.829,7.287 ZM31.829,17.484 L31.829,65.538 L30.377,65.538 L30.377,17.484 L31.829,17.484 ZM14.435,14.569 L14.435,7.287 L15.877,7.287 L15.877,14.569 L14.435,14.569 ZM14.435,75.736 L14.435,68.455 L15.877,68.455 L15.877,75.736 L14.435,75.736 ZM27.483,80.101 L18.781,80.101 L18.781,2.922 L27.483,2.922 L27.483,80.101 ZM30.377,75.736 L30.377,68.455 L31.829,68.455 L31.829,75.736 L30.377,75.736 ZM43.435,80.101 L34.733,80.101 L34.733,2.922 L43.435,2.922 L43.435,80.101 ZM46.329,75.736 L46.329,68.455 L47.781,68.455 L47.781,75.736 L46.329,75.736 ZM59.377,80.101 L50.685,80.101 L50.685,2.922 L59.377,2.922 L59.377,80.101 ZM62.281,75.736 L62.281,68.455 L63.733,68.455 L63.733,75.736 L62.281,75.736 ZM75.329,80.101 L66.627,80.101 L66.627,2.922 L75.329,2.922 L75.329,80.101 ZM78.233,75.736 L78.233,68.455 L79.685,68.455 L79.685,75.736 L78.233,75.736 ZM95.627,68.455 L95.627,75.736 L94.185,75.736 L94.185,68.455 L95.627,68.455 ZM91.281,65.538 L91.281,80.101 L82.579,80.101 L82.579,2.922 L91.281,2.922 L91.281,65.538 Z"
       transform="translate(17.48 11.85)"
       class="cls-1"
       id="path6" />
  </g>
  <path
     d="m 109.1068,125.88277 c -1.148,1.558 -2.893,2.337 -5.237,2.337 -2.305,0 -4.041004,-0.759 -5.207004,-2.278 -1.168,-1.519 -1.766,-3.767 -1.795,-6.746 v -3.691 c 0,-3.067 0.574,-5.366 1.721,-6.9 1.148,-1.533 2.898004,-2.299 5.252004,-2.299 2.334,0 4.074,0.747 5.222,2.241 1.147,1.494 1.736,3.731 1.765,6.708 v 3.692 c 0,3.067 -0.574,5.379 -1.721,6.936 z m -1.839,-10.92 c 0,-2.002 -0.273,-3.469 -0.82,-4.402 -0.547,-0.933 -1.416,-1.399 -2.607,-1.399 -1.163,0 -2.017,0.442 -2.564,1.326 -0.547,0.884 -0.835,2.263 -0.864,4.138 v 4.834 c 0,1.992 0.278,3.477 0.835,4.453 0.557,0.976 1.43,1.464 2.622,1.464 1.143,0 1.987,-0.451 2.534,-1.354 0.547,-0.903 0.835,-2.317 0.864,-4.241 z m -20.398004,13.257 c -2.305,0 -4.041,-0.759 -5.208,-2.278 -1.167,-1.519 -1.765,-3.767 -1.794,-6.746 v -3.691 c 0,-3.067 0.574,-5.366 1.721,-6.9 1.148,-1.533 2.898,-2.299 5.252,-2.299 2.334,0 4.074,0.747 5.222,2.241 1.147,1.494 1.736,3.731 1.765,6.708 v 3.692 c 0,3.067 -0.574,5.379 -1.721,6.936 -1.148,1.558 -2.893,2.337 -5.237,2.337 z m 3.398,-13.257 c 0,-2.002 -0.273,-3.469 -0.82,-4.402 -0.547,-0.933 -1.416,-1.399 -2.607,-1.399 -1.163,0 -2.017,0.442 -2.564,1.326 -0.547,0.884 -0.835,2.263 -0.864,4.138 v 4.834 c 0,1.992 0.278,3.477 0.835,4.453 0.557,0.976 1.43,1.464 2.622,1.464 1.143,0 1.987,-0.451 2.534,-1.354 0.547,-0.903 0.835,-2.317 0.864,-4.241 z m -20.398,13.257 c -2.305,0 -4.041,-0.759 -5.208,-2.278 -1.167,-1.519 -1.765,-3.767 -1.794,-6.746 v -3.691 c 0,-3.067 0.574,-5.366 1.721,-6.9 1.148,-1.533 2.898,-2.299 5.252,-2.299 2.334,0 4.074,0.747 5.222,2.241 1.147,1.494 1.736,3.731 1.765,6.708 v 3.692 c 0,3.067 -0.574,5.379 -1.721,6.936 -1.148,1.558 -2.893,2.337 -5.237,2.337 z m 3.398,-13.257 c 0,-2.002 -0.273,-3.469 -0.82,-4.402 -0.547,-0.933 -1.416,-1.399 -2.607,-1.399 -1.163,0 -2.017,0.442 -2.564,1.326 -0.547,0.884 -0.835,2.263 -0.864,4.138 v 4.834 c 0,1.992 0.278,3.477 0.835,4.453 0.557,0.976 1.43,1.464 2.622,1.464 1.143,0 1.987,-0.451 2.534,-1.354 0.547,-0.903 0.835,-2.317 0.864,-4.241 z m -32.479,-1.04 c 2.031,0 3.611,0.649 4.739,1.948 1.128,1.299 1.692,3.047 1.692,5.244 0,2.168 -0.625,3.894 -1.875,5.178 -1.251,1.285 -2.964,1.927 -5.142,1.927 -1.953,0 -3.572,-0.555 -4.856,-1.663 -1.284,-1.108 -1.98,-2.571 -2.087,-4.388 h 3.442 c 0.137,1.036 0.508,1.829 1.113,2.381 0.606,0.552 1.397,0.827 2.373,0.827 1.094,0 1.946,-0.39 2.556,-1.171 0.611,-0.781 0.916,-1.845 0.916,-3.194 0,-1.298 -0.337,-2.326 -1.011,-3.083 -0.674,-0.757 -1.601,-1.135 -2.783,-1.135 -0.645,0 -1.192,0.086 -1.641,0.256 -0.449,0.171 -0.937,0.506 -1.464,1.004 l -2.842,-0.704 1.157,-10.752 h 11.455 v 3.077 h -8.496 l -0.586,5.097 c 0.986,-0.566 2.1,-0.849 3.34,-0.849 z"
     class="cls-1"
     id="path6-1"
     sodipodi:nodetypes="csccscsccscsssscsssscssscscsccscssssscsssscssscscsccscssssscsssscssssssscccscsssccccccccs"
     style="fill:#f4a305;fill-rule:evenodd" />
</svg>
