<svg xmlns="http://www.w3.org/2000/svg" xmlns:xlink="http://www.w3.org/1999/xlink" preserveAspectRatio="xMidYMid" width="140" height="140" viewBox="0 0 140 140">
  <defs>
    <style>
      .cls-1 {
        fill: #f4a305;
        fill-rule: evenodd;
      }
    </style>
  </defs>
  <g>
    <path d="M66.277,120.956 C65.129,122.514 63.384,123.293 61.040,123.293 C58.735,123.293 56.999,122.534 55.832,121.015 C54.665,119.496 54.067,117.248 54.038,114.269 L54.038,110.578 C54.038,107.511 54.612,105.212 55.759,103.678 C56.907,102.145 58.657,101.379 61.011,101.379 C63.345,101.379 65.085,102.126 66.233,103.620 C67.380,105.114 67.969,107.351 67.998,110.328 L67.998,114.020 C67.998,117.087 67.424,119.399 66.277,120.956 ZM64.438,110.036 C64.438,108.034 64.165,106.567 63.618,105.634 C63.071,104.701 62.202,104.235 61.011,104.235 C59.848,104.235 58.994,104.677 58.447,105.561 C57.900,106.445 57.612,107.824 57.583,109.699 L57.583,114.533 C57.583,116.525 57.861,118.010 58.418,118.986 C58.975,119.962 59.848,120.450 61.040,120.450 C62.183,120.450 63.027,119.999 63.574,119.096 C64.121,118.193 64.409,116.779 64.438,114.855 L64.438,110.036 ZM44.040,123.293 C41.735,123.293 39.999,122.534 38.832,121.015 C37.665,119.496 37.067,117.248 37.038,114.269 L37.038,110.578 C37.038,107.511 37.612,105.212 38.759,103.678 C39.907,102.145 41.657,101.379 44.011,101.379 C46.345,101.379 48.085,102.126 49.233,103.620 C50.380,105.114 50.969,107.351 50.998,110.328 L50.998,114.020 C50.998,117.087 50.424,119.399 49.277,120.956 C48.129,122.514 46.384,123.293 44.040,123.293 ZM47.438,110.036 C47.438,108.034 47.165,106.567 46.618,105.634 C46.071,104.701 45.202,104.235 44.011,104.235 C42.848,104.235 41.994,104.677 41.447,105.561 C40.900,106.445 40.612,107.824 40.583,109.699 L40.583,114.533 C40.583,116.525 40.861,118.010 41.418,118.986 C41.975,119.962 42.848,120.450 44.040,120.450 C45.183,120.450 46.027,119.999 46.574,119.096 C47.121,118.193 47.409,116.779 47.438,114.855 L47.438,110.036 ZM27.040,123.293 C24.735,123.293 22.999,122.534 21.832,121.015 C20.665,119.496 20.067,117.248 20.038,114.269 L20.038,110.578 C20.038,107.511 20.612,105.212 21.759,103.678 C22.907,102.145 24.657,101.379 27.011,101.379 C29.345,101.379 31.085,102.126 32.233,103.620 C33.380,105.114 33.969,107.351 33.998,110.328 L33.998,114.020 C33.998,117.087 33.424,119.399 32.277,120.956 C31.129,122.514 29.384,123.293 27.040,123.293 ZM30.438,110.036 C30.438,108.034 30.165,106.567 29.618,105.634 C29.071,104.701 28.202,104.235 27.011,104.235 C25.848,104.235 24.994,104.677 24.447,105.561 C23.900,106.445 23.612,107.824 23.583,109.699 L23.583,114.533 C23.583,116.525 23.861,118.010 24.418,118.986 C24.975,119.962 25.848,120.450 27.040,120.450 C28.183,120.450 29.027,119.999 29.574,119.096 C30.121,118.193 30.409,116.779 30.438,114.855 L30.438,110.036 ZM16.808,117.023 C16.808,118.937 16.151,120.460 14.837,121.593 C13.524,122.726 11.798,123.293 9.659,123.293 C7.608,123.293 5.929,122.746 4.620,121.652 C3.311,120.558 2.657,119.103 2.657,117.286 L6.217,117.286 C6.217,118.224 6.532,118.986 7.162,119.572 C7.791,120.158 8.639,120.450 9.703,120.450 C10.807,120.450 11.676,120.158 12.310,119.572 C12.945,118.986 13.263,118.136 13.263,117.023 C13.263,115.900 12.931,115.036 12.267,114.430 C11.602,113.825 10.616,113.522 9.308,113.522 L7.213,113.522 L7.213,110.710 L9.381,110.710 C10.474,110.700 11.341,110.416 11.981,109.860 C12.620,109.303 12.940,108.498 12.940,107.443 C12.940,106.427 12.674,105.639 12.142,105.077 C11.610,104.516 10.797,104.235 9.703,104.235 C8.746,104.235 7.960,104.511 7.345,105.063 C6.729,105.614 6.422,106.335 6.422,107.223 L2.862,107.223 C2.862,106.129 3.153,105.134 3.734,104.235 C4.315,103.336 5.125,102.636 6.165,102.133 C7.206,101.630 8.370,101.379 9.659,101.379 C11.788,101.379 13.460,101.913 14.676,102.982 C15.892,104.052 16.500,105.538 16.500,107.443 C16.500,108.400 16.195,109.301 15.584,110.145 C14.974,110.990 14.185,111.628 13.219,112.057 C14.391,112.457 15.282,113.087 15.892,113.947 C16.502,114.807 16.808,115.832 16.808,117.023 Z" transform="translate(36 8.35)" class="cls-1"/>
    <path d="M66.515,93.999 L39.814,93.999 C39.812,93.999 39.811,93.999 39.809,93.999 C39.807,93.999 39.805,93.999 39.803,93.999 L39.787,93.999 L39.783,93.999 L28.594,93.999 C28.593,93.999 28.591,93.999 28.589,93.999 C28.587,93.999 28.585,93.999 28.584,93.999 L23.679,93.999 C22.859,93.999 22.194,93.331 22.194,92.507 C22.194,91.682 22.859,91.014 23.679,91.014 L26.631,91.014 L18.975,63.552 L11.892,66.518 C11.860,66.532 11.827,66.543 11.794,66.555 C11.438,66.678 2.971,69.732 2.971,80.483 L2.971,91.014 L11.485,91.014 L11.485,79.936 C11.485,79.112 12.150,78.444 12.970,78.444 C13.791,78.444 14.455,79.112 14.455,79.936 L14.455,91.014 L19.031,91.014 C19.851,91.014 20.516,91.681 20.516,92.506 C20.516,93.331 19.851,93.998 19.031,93.998 L1.485,93.998 C0.665,93.998 -0.000,93.330 -0.000,92.506 L-0.000,80.483 C-0.000,73.741 2.927,69.549 5.383,67.219 C7.864,64.864 10.363,63.900 10.788,63.746 L19.291,60.186 C19.373,60.152 19.457,60.127 19.541,60.108 L25.756,55.988 L25.756,53.593 C21.254,51.335 17.992,46.943 17.288,41.744 C13.658,41.449 10.794,38.389 10.794,34.666 C10.794,32.774 11.535,31.055 12.739,29.780 L12.739,20.793 C12.739,9.327 22.022,-0.001 33.432,-0.001 L35.034,-0.001 C46.446,-0.001 55.729,9.327 55.729,20.793 L55.729,29.883 C56.877,31.146 57.578,32.826 57.578,34.667 C57.578,38.389 54.713,41.449 51.084,41.744 C50.380,46.943 47.118,51.335 42.617,53.593 L42.617,56.154 C42.677,56.184 42.737,56.215 42.794,56.254 L48.756,60.206 L57.213,63.747 C57.490,63.848 58.663,64.298 60.120,65.248 C60.121,65.248 60.121,65.248 60.121,65.249 C63.064,67.169 68.000,71.699 68.000,80.483 L68.000,92.504 C68.000,93.327 67.335,93.999 66.515,93.999 ZM40.183,85.629 L43.145,75.007 C43.035,75.066 42.918,75.113 42.795,75.144 C42.677,75.173 42.558,75.187 42.439,75.187 C42.126,75.187 41.817,75.088 41.559,74.897 L39.819,73.610 L38.724,76.541 L40.183,85.629 ZM38.039,91.014 L35.930,77.880 L32.442,77.880 L30.333,91.014 L38.039,91.014 ZM28.704,60.040 L34.117,65.338 L39.646,59.570 L39.646,54.718 C38.388,55.050 37.069,55.228 35.709,55.228 L32.664,55.228 C31.304,55.228 29.984,55.050 28.726,54.718 L28.726,56.805 C28.726,56.806 28.726,56.806 28.726,56.806 L28.726,59.790 C28.726,59.875 28.717,59.960 28.704,60.040 ZM34.075,69.362 L30.853,71.745 L32.166,74.895 L36.166,74.895 L37.333,71.772 L34.075,69.362 ZM28.198,85.571 L29.644,76.571 L28.391,73.566 L26.591,74.897 C26.333,75.088 26.024,75.187 25.710,75.187 C25.592,75.187 25.472,75.172 25.355,75.143 C25.331,75.138 25.308,75.130 25.285,75.123 L28.198,85.571 ZM21.792,62.192 L26.266,71.432 L31.859,67.295 L26.204,61.761 C25.789,61.354 25.663,60.763 25.826,60.243 C25.781,60.100 25.756,59.948 25.756,59.790 L25.756,59.564 L21.792,62.192 ZM13.764,34.666 C13.764,36.690 15.225,38.373 17.142,38.717 L17.142,30.616 C15.225,30.960 13.764,32.644 13.764,34.666 ZM51.230,38.717 C53.147,38.373 54.607,36.690 54.608,34.666 C54.608,32.644 53.147,30.960 51.230,30.616 L51.230,38.717 ZM50.074,26.165 C50.088,26.169 50.100,26.174 50.114,26.177 C50.145,26.185 50.176,26.193 50.207,26.204 C50.225,26.209 50.243,26.217 50.261,26.223 C50.288,26.233 50.316,26.243 50.343,26.255 C50.363,26.264 50.383,26.275 50.403,26.285 C50.426,26.296 50.449,26.307 50.470,26.320 C50.493,26.332 50.514,26.345 50.535,26.359 C50.554,26.371 50.573,26.382 50.591,26.396 C50.613,26.411 50.634,26.427 50.655,26.444 C50.672,26.456 50.688,26.469 50.705,26.483 C50.724,26.500 50.743,26.518 50.762,26.536 C50.778,26.551 50.795,26.566 50.810,26.582 C50.827,26.599 50.842,26.618 50.858,26.636 C50.874,26.654 50.890,26.673 50.906,26.692 C50.919,26.709 50.932,26.726 50.944,26.744 C50.960,26.765 50.976,26.787 50.991,26.810 C51.001,26.826 51.011,26.844 51.020,26.860 C51.035,26.885 51.050,26.909 51.063,26.936 C51.072,26.953 51.079,26.969 51.087,26.986 C51.100,27.012 51.112,27.038 51.123,27.066 C51.130,27.085 51.137,27.104 51.143,27.122 C51.152,27.148 51.162,27.174 51.169,27.200 C51.176,27.224 51.181,27.246 51.187,27.269 C51.193,27.293 51.198,27.316 51.203,27.339 C51.208,27.367 51.212,27.396 51.216,27.425 C51.218,27.445 51.222,27.463 51.223,27.483 C51.226,27.515 51.227,27.549 51.228,27.581 C51.228,27.587 51.229,27.593 51.229,27.599 C51.759,27.654 52.270,27.769 52.759,27.933 L52.759,20.793 C52.759,10.972 44.808,2.984 35.035,2.984 L33.433,2.984 C23.660,2.984 15.710,10.972 15.710,20.793 L15.710,27.900 C16.169,27.753 16.648,27.650 17.142,27.599 C17.143,27.578 17.145,27.557 17.146,27.535 C17.147,27.512 17.147,27.488 17.150,27.465 C17.153,27.438 17.158,27.411 17.162,27.383 C17.166,27.362 17.168,27.339 17.172,27.317 C17.178,27.290 17.186,27.263 17.193,27.236 C17.199,27.216 17.203,27.195 17.209,27.175 C17.218,27.149 17.228,27.123 17.237,27.098 C17.245,27.078 17.251,27.057 17.259,27.037 C17.270,27.013 17.282,26.992 17.293,26.968 C17.303,26.948 17.312,26.927 17.322,26.908 C17.334,26.886 17.348,26.865 17.361,26.844 C17.373,26.824 17.384,26.804 17.397,26.785 C17.410,26.765 17.424,26.748 17.438,26.729 C17.453,26.709 17.467,26.688 17.482,26.671 C17.497,26.653 17.512,26.637 17.527,26.621 C17.544,26.602 17.560,26.582 17.578,26.564 C17.593,26.549 17.610,26.536 17.625,26.521 C17.645,26.504 17.663,26.485 17.684,26.468 C17.699,26.455 17.715,26.445 17.730,26.434 C17.752,26.416 17.774,26.399 17.798,26.382 C17.813,26.372 17.830,26.363 17.846,26.353 C17.870,26.338 17.895,26.322 17.920,26.308 C17.937,26.299 17.954,26.292 17.971,26.283 C17.997,26.270 18.023,26.257 18.050,26.245 C18.071,26.236 18.093,26.230 18.115,26.222 C18.139,26.214 18.162,26.204 18.186,26.196 C18.212,26.188 18.239,26.182 18.265,26.175 C18.286,26.170 18.307,26.164 18.328,26.159 C18.361,26.152 18.395,26.148 18.429,26.143 C18.444,26.141 18.460,26.138 18.475,26.136 C18.525,26.130 18.576,26.128 18.627,26.128 C18.629,26.128 18.631,26.128 18.633,26.128 C18.634,26.128 18.634,26.128 18.635,26.128 C18.870,26.128 33.232,26.041 39.839,16.864 C40.181,16.388 40.768,16.159 41.340,16.276 C41.912,16.394 42.362,16.837 42.491,17.409 C42.507,17.481 44.261,24.837 50.074,26.165 ZM48.260,39.632 L48.260,28.743 C43.928,27.242 41.610,23.377 40.490,20.731 C34.000,27.558 23.910,28.827 20.112,29.062 L20.112,39.632 C20.112,46.586 25.743,52.243 32.664,52.243 L35.709,52.243 C42.629,52.243 48.260,46.586 48.260,39.632 ZM42.617,59.712 L42.617,59.790 C42.617,59.855 42.611,59.917 42.603,59.980 C42.659,60.414 42.527,60.867 42.201,61.207 L36.334,67.327 L41.884,71.432 L46.358,62.192 L42.617,59.712 ZM65.029,80.484 C65.029,73.479 61.481,69.694 58.504,67.752 C58.504,67.752 58.504,67.752 58.503,67.751 C57.204,66.905 56.211,66.557 56.201,66.553 C56.171,66.543 56.137,66.530 56.108,66.518 L49.381,63.701 L41.767,91.014 L53.544,91.014 L53.544,79.937 C53.544,79.113 54.209,78.444 55.029,78.444 C55.850,78.444 56.515,79.113 56.515,79.937 L56.515,91.014 L65.029,91.014 L65.029,80.484 ZM31.857,39.504 L31.857,34.556 C31.857,33.732 32.521,33.063 33.342,33.063 C34.162,33.063 34.827,33.732 34.827,34.556 L34.827,38.011 L35.924,38.011 C36.744,38.011 37.409,38.680 37.409,39.504 C37.409,40.328 36.744,40.996 35.924,40.996 L33.342,40.996 C32.521,40.996 31.857,40.328 31.857,39.504 Z" transform="translate(36 8.35)" class="cls-1"/>
  </g>
</svg>
