<?xml version="1.0" encoding="UTF-8" standalone="no"?>
<svg
   xmlns:dc="http://purl.org/dc/elements/1.1/"
   xmlns:cc="http://creativecommons.org/ns#"
   xmlns:rdf="http://www.w3.org/1999/02/22-rdf-syntax-ns#"
   xmlns:svg="http://www.w3.org/2000/svg"
   xmlns="http://www.w3.org/2000/svg"
   xmlns:sodipodi="http://sodipodi.sourceforge.net/DTD/sodipodi-0.dtd"
   xmlns:inkscape="http://www.inkscape.org/namespaces/inkscape"
   preserveAspectRatio="xMidYMid"
   width="140"
   height="140"
   viewBox="0 0 140 140"
   version="1.1"
   id="svg12"
   sodipodi:docname="bl12_i1.svg"
   inkscape:version="1.0.1 (3bc2e813f5, 2020-09-07)">
  <metadata
     id="metadata16">
    <rdf:RDF>
      <cc:Work
         rdf:about="">
        <dc:format>image/svg+xml</dc:format>
        <dc:type
           rdf:resource="http://purl.org/dc/dcmitype/StillImage" />
      </cc:Work>
    </rdf:RDF>
  </metadata>
  <sodipodi:namedview
     pagecolor="#ffffff"
     bordercolor="#666666"
     borderopacity="1"
     objecttolerance="10"
     gridtolerance="10"
     guidetolerance="10"
     inkscape:pageopacity="0"
     inkscape:pageshadow="2"
     inkscape:window-width="1366"
     inkscape:window-height="716"
     id="namedview14"
     showgrid="false"
     inkscape:zoom="3.9142857"
     inkscape:cx="70"
     inkscape:cy="70"
     inkscape:window-x="-8"
     inkscape:window-y="-8"
     inkscape:window-maximized="1"
     inkscape:current-layer="g10" />
  <defs
     id="defs4">
    <style
       id="style2">
      .cls-1 {
        fill: #f4a305;
        fill-rule: evenodd;
      }
    </style>
  </defs>
  <g
     id="g10">
    <path
       d="M-0.000,77.999 L-0.000,39.493 L10.887,39.493 L10.887,18.759 L43.546,18.759 L43.546,39.493 L47.505,39.493 L47.505,17.771 L57.402,17.771 L57.402,-0.001 L86.103,-0.001 L86.103,53.316 L96.000,53.316 L96.000,77.999 L-0.000,77.999 ZM40.577,21.721 L13.856,21.721 L13.856,25.670 L40.577,25.670 L40.577,21.721 ZM40.577,28.632 L13.856,28.632 L13.856,39.493 L40.577,39.493 L40.577,28.632 ZM20.783,42.455 L20.783,56.277 L29.691,56.277 L29.691,42.455 L20.783,42.455 ZM47.505,42.455 L32.660,42.455 L32.660,59.240 L17.814,59.240 L17.814,42.455 L2.969,42.455 L2.969,75.037 L47.505,75.037 L47.505,42.455 ZM83.134,2.961 L60.371,2.961 L60.371,17.771 L83.134,17.771 L83.134,2.961 ZM63.340,20.734 L63.340,35.543 L70.268,35.543 L70.268,20.734 L63.340,20.734 ZM83.134,20.734 L73.237,20.734 L73.237,38.505 L60.371,38.505 L60.371,20.734 L50.474,20.734 L50.474,75.037 L63.340,75.037 L63.340,53.316 L83.134,53.316 L83.134,20.734 ZM93.031,56.277 L66.309,56.277 L66.309,75.037 L93.031,75.037 L93.031,56.277 ZM88.577,70.100 L74.722,70.100 L74.722,67.138 L88.577,67.138 L88.577,70.100 ZM80.660,61.215 L88.577,61.215 L88.577,64.176 L80.660,64.176 L80.660,61.215 ZM72.742,13.822 L68.783,13.822 L68.783,10.860 L72.742,10.860 L72.742,13.822 ZM78.680,13.822 L74.722,13.822 L74.722,10.860 L78.680,10.860 L78.680,13.822 ZM31.175,35.543 L27.216,35.543 L27.216,32.581 L31.175,32.581 L31.175,35.543 ZM37.113,35.543 L33.155,35.543 L33.155,32.581 L37.113,32.581 L37.113,35.543 Z"
       transform="translate(22 16.35)"
       class="cls-1"
       id="path6" />
    <path
       d="m 84.297,104.956 c -1.148,1.558 -2.893,2.337 -5.237,2.337 -2.305,0 -4.041,-0.759 -5.207,-2.278 -1.168,-1.519 -1.766,-3.767 -1.795,-6.746 v -3.691 c 0,-3.067 0.574,-5.366 1.721,-6.9 1.148,-1.533 2.898,-2.299 5.252,-2.299 2.334,0 4.074,0.747 5.222,2.241 1.147,1.494 1.736,3.731 1.765,6.708 v 3.692 c 0,3.067 -0.574,5.379 -1.721,6.936 z m -1.839,-10.92 c 0,-2.002 -0.273,-3.469 -0.82,-4.402 -0.547,-0.933 -1.416,-1.399 -2.607,-1.399 -1.163,0 -2.017,0.442 -2.564,1.326 -0.547,0.884 -0.835,2.263 -0.864,4.138 v 4.834 c 0,1.992 0.278,3.477 0.835,4.453 0.557,0.976 1.43,1.464 2.622,1.464 1.143,0 1.987,-0.451 2.534,-1.354 0.547,-0.903 0.835,-2.317 0.864,-4.241 z M 62.06,107.293 c -2.305,0 -4.041,-0.759 -5.208,-2.278 -1.167,-1.519 -1.765,-3.767 -1.794,-6.746 v -3.691 c 0,-3.067 0.574,-5.366 1.721,-6.9 1.148,-1.533 2.898,-2.299 5.252,-2.299 2.334,0 4.074,0.747 5.222,2.241 1.147,1.494 1.736,3.731 1.765,6.708 v 3.692 c 0,3.067 -0.574,5.379 -1.721,6.936 -1.148,1.558 -2.893,2.337 -5.237,2.337 z m 3.398,-13.257 c 0,-2.002 -0.273,-3.469 -0.82,-4.402 -0.547,-0.933 -1.416,-1.399 -2.607,-1.399 -1.163,0 -2.017,0.442 -2.564,1.326 -0.547,0.884 -0.835,2.263 -0.864,4.138 v 4.834 c 0,1.992 0.278,3.477 0.835,4.453 0.557,0.976 1.43,1.464 2.622,1.464 1.143,0 1.987,-0.451 2.534,-1.354 0.547,-0.903 0.835,-2.317 0.864,-4.241 z M 45.06,107.293 c -2.305,0 -4.041,-0.759 -5.208,-2.278 -1.167,-1.519 -1.765,-3.767 -1.794,-6.746 v -3.691 c 0,-3.067 0.574,-5.366 1.721,-6.9 1.148,-1.533 2.898,-2.299 5.252,-2.299 2.334,0 4.074,0.747 5.222,2.241 1.147,1.494 1.736,3.731 1.765,6.708 v 3.692 c 0,3.067 -0.574,5.379 -1.721,6.936 -1.148,1.558 -2.893,2.337 -5.237,2.337 z m 3.398,-13.257 c 0,-2.002 -0.273,-3.469 -0.82,-4.402 -0.547,-0.933 -1.416,-1.399 -2.607,-1.399 -1.163,0 -2.017,0.442 -2.564,1.326 -0.547,0.884 -0.835,2.263 -0.864,4.138 v 4.834 c 0,1.992 0.278,3.477 0.835,4.453 0.557,0.976 1.43,1.464 2.622,1.464 1.143,0 1.987,-0.451 2.534,-1.354 0.547,-0.903 0.835,-2.317 0.864,-4.241 z m -37.381,10.5175 7.104,-7.749 c 1.026,-1.142 1.755,-2.097 2.19,-2.864 0.435,-0.766 0.652,-1.535 0.652,-2.307 0,-1.016 -0.286,-1.835 -0.857,-2.46 -0.571,-0.626 -1.34,-0.938 -2.307,-0.938 -1.153,0 -2.046,0.352 -2.681,1.055 -0.635,0.703 -0.952,1.665 -0.952,2.885 h -3.56 c 0,-1.298 0.296,-2.468 0.887,-3.508 0.59,-1.04 1.435,-1.848 2.534,-2.424 1.099,-0.576 2.366,-0.864 3.801,-0.864 2.07,0 3.704,0.519 4.9,1.56 1.196,1.04 1.794,2.478 1.794,4.314 0,1.064 -0.3,2.18 -0.9,3.346 -0.601,1.168 -1.585,2.493 -2.952,3.977 l -5.215,5.582 h 9.903 v 2.842 H 11.077 Z"
       transform="translate(22,16.35)"
       class="cls-1"
       id="path8"
       sodipodi:nodetypes="csccscsccscsssscsssscssscscsccscssssscsssscssscscsccscssssscsssscscccscsscccsscsccccccc" />
  </g>
</svg>
