<?xml version="1.0" encoding="UTF-8" standalone="no"?>
<svg
   xmlns:dc="http://purl.org/dc/elements/1.1/"
   xmlns:cc="http://creativecommons.org/ns#"
   xmlns:rdf="http://www.w3.org/1999/02/22-rdf-syntax-ns#"
   xmlns:svg="http://www.w3.org/2000/svg"
   xmlns="http://www.w3.org/2000/svg"
   xmlns:sodipodi="http://sodipodi.sourceforge.net/DTD/sodipodi-0.dtd"
   xmlns:inkscape="http://www.inkscape.org/namespaces/inkscape"
   preserveAspectRatio="xMidYMid"
   width="140"
   height="140"
   viewBox="0 0 140 140"
   version="1.1"
   id="svg12"
   sodipodi:docname="bl12_i2.svg"
   inkscape:version="1.0.1 (3bc2e813f5, 2020-09-07)">
  <metadata
     id="metadata16">
    <rdf:RDF>
      <cc:Work
         rdf:about="">
        <dc:format>image/svg+xml</dc:format>
        <dc:type
           rdf:resource="http://purl.org/dc/dcmitype/StillImage" />
      </cc:Work>
    </rdf:RDF>
  </metadata>
  <sodipodi:namedview
     pagecolor="#ffffff"
     bordercolor="#666666"
     borderopacity="1"
     objecttolerance="10"
     gridtolerance="10"
     guidetolerance="10"
     inkscape:pageopacity="0"
     inkscape:pageshadow="2"
     inkscape:window-width="1366"
     inkscape:window-height="716"
     id="namedview14"
     showgrid="false"
     inkscape:zoom="3.9142857"
     inkscape:cx="70"
     inkscape:cy="85.322153"
     inkscape:window-x="-8"
     inkscape:window-y="-8"
     inkscape:window-maximized="1"
     inkscape:current-layer="g10" />
  <defs
     id="defs4">
    <style
       id="style2">
      .cls-1 {
        fill: #f4a305;
        fill-rule: evenodd;
      }
    </style>
  </defs>
  <g
     id="g10">
    <path
       d="m 96.882,118.956 c -1.148,1.558 -2.893,2.337 -5.237,2.337 -2.305,0 -4.041,-0.759 -5.207,-2.278 -1.168,-1.519 -1.766,-3.767 -1.795,-6.746 v -3.691 c 0,-3.067 0.574,-5.366 1.721,-6.9 1.148,-1.533 2.898,-2.299 5.252,-2.299 2.334,0 4.074,0.747 5.222,2.241 1.147,1.494 1.736,3.731 1.765,6.708 v 3.692 c 0,3.067 -0.574,5.379 -1.721,6.936 z m -1.839,-10.92 c 0,-2.002 -0.273,-3.469 -0.82,-4.402 -0.547,-0.933 -1.416,-1.399 -2.607,-1.399 -1.163,0 -2.017,0.442 -2.564,1.326 -0.547,0.884 -0.835,2.263 -0.864,4.138 v 4.834 c 0,1.992 0.278,3.477 0.835,4.453 0.557,0.976 1.43,1.464 2.622,1.464 1.143,0 1.987,-0.451 2.534,-1.354 0.547,-0.903 0.835,-2.317 0.864,-4.241 z m -20.398,13.257 c -2.305,0 -4.041,-0.759 -5.208,-2.278 -1.167,-1.519 -1.765,-3.767 -1.794,-6.746 v -3.691 c 0,-3.067 0.574,-5.366 1.721,-6.9 1.148,-1.533 2.898,-2.299 5.252,-2.299 2.334,0 4.074,0.747 5.222,2.241 1.147,1.494 1.736,3.731 1.765,6.708 v 3.692 c 0,3.067 -0.574,5.379 -1.721,6.936 -1.148,1.558 -2.893,2.337 -5.237,2.337 z m 3.398,-13.257 c 0,-2.002 -0.273,-3.469 -0.82,-4.402 -0.547,-0.933 -1.416,-1.399 -2.607,-1.399 -1.163,0 -2.017,0.442 -2.564,1.326 -0.547,0.884 -0.835,2.263 -0.864,4.138 v 4.834 c 0,1.992 0.278,3.477 0.835,4.453 0.557,0.976 1.43,1.464 2.622,1.464 1.143,0 1.987,-0.451 2.534,-1.354 0.547,-0.903 0.835,-2.317 0.864,-4.241 z m -20.398,13.257 c -2.305,0 -4.041,-0.759 -5.208,-2.278 -1.167,-1.519 -1.765,-3.767 -1.794,-6.746 v -3.691 c 0,-3.067 0.574,-5.366 1.721,-6.9 1.148,-1.533 2.898,-2.299 5.252,-2.299 2.334,0 4.074,0.747 5.222,2.241 1.147,1.494 1.736,3.731 1.765,6.708 v 3.692 c 0,3.067 -0.574,5.379 -1.721,6.936 -1.148,1.558 -2.893,2.337 -5.237,2.337 z m 3.398,-13.257 c 0,-2.002 -0.273,-3.469 -0.82,-4.402 -0.547,-0.933 -1.416,-1.399 -2.607,-1.399 -1.163,0 -2.017,0.442 -2.564,1.326 -0.547,0.884 -0.835,2.263 -0.864,4.138 v 4.834 c 0,1.992 0.278,3.477 0.835,4.453 0.557,0.976 1.43,1.464 2.622,1.464 1.143,0 1.987,-0.451 2.534,-1.354 0.547,-0.903 0.835,-2.317 0.864,-4.241 z m -30.358,13.257 c -2.305,0 -4.041,-0.759 -5.207,-2.278 -1.168,-1.519 -1.766,-3.767 -1.795,-6.746 v -3.691 c 0,-3.067 0.574,-5.366 1.721,-6.9 1.148,-1.533 2.898,-2.299 5.252,-2.299 2.334,0 4.074,0.747 5.222,2.241 1.147,1.494 1.736,3.731 1.765,6.708 v 3.692 c 0,3.067 -0.574,5.379 -1.721,6.936 -1.148,1.558 -2.893,2.337 -5.237,2.337 z m 3.398,-13.257 c 0,-2.002 -0.273,-3.469 -0.82,-4.402 -0.547,-0.933 -1.416,-1.399 -2.607,-1.399 -1.163,0 -2.017,0.442 -2.564,1.326 -0.547,0.884 -0.835,2.263 -0.864,4.138 v 4.834 c 0,1.992 0.278,3.477 0.835,4.453 0.557,0.976 1.43,1.464 2.622,1.464 1.143,0 1.987,-0.451 2.534,-1.354 0.547,-0.903 0.835,-2.317 0.864,-4.241 z m -19.519,-1.04 c 2.031,0 3.611,0.649 4.739,1.948 1.128,1.299 1.692,3.047 1.692,5.244 0,2.168 -0.625,3.894 -1.875,5.178 -1.251,1.285 -2.964,1.927 -5.142,1.927 -1.953,0 -3.572,-0.555 -4.856,-1.663 -1.284,-1.108 -1.98,-2.571 -2.087,-4.388 h 3.442 c 0.137,1.036 0.508,1.829 1.113,2.381 0.606,0.552 1.397,0.827 2.373,0.827 1.094,0 1.946,-0.39 2.556,-1.171 0.611,-0.781 0.916,-1.845 0.916,-3.194 0,-1.298 -0.337,-2.326 -1.011,-3.083 -0.674,-0.757 -1.601,-1.135 -2.783,-1.135 -0.645,0 -1.192,0.086 -1.641,0.256 -0.449,0.171 -0.937,0.506 -1.464,1.004 L 7.694,110.423 8.851,99.671 h 11.455 v 3.077 H 11.81 l -0.586,5.097 c 0.986,-0.566 2.1,-0.849 3.34,-0.849 z"
       class="cls-1"
       id="path6"
       transform="translate(17.19,9.35)"
       sodipodi:nodetypes="csccscsccscsssscsssscssscscsccscssssscsssscssscscsccscssssscsssscssccscsccscssssscsssscssssssscccscsssccccccccs" />
    <path
       d="M89.694,91.997 L9.555,91.997 C8.766,91.997 8.125,91.352 8.125,90.558 C8.125,89.764 8.766,89.121 9.555,89.121 L12.418,89.121 L12.418,1.434 C12.418,0.641 13.059,-0.002 13.849,-0.002 L59.642,-0.002 C60.433,-0.002 61.074,0.641 61.074,1.434 L61.074,89.121 L83.970,89.121 L83.970,81.934 L65.366,81.934 C64.576,81.934 63.936,81.290 63.936,80.495 C63.936,79.702 64.576,79.059 65.366,79.059 L83.970,79.059 L83.970,76.183 L65.366,76.183 C64.576,76.183 63.936,75.541 63.936,74.746 C63.936,73.952 64.576,73.308 65.366,73.308 L83.970,73.308 L83.970,70.434 L65.366,70.434 C64.576,70.434 63.936,69.790 63.936,68.996 C63.936,68.202 64.576,67.559 65.366,67.559 L83.970,67.559 L83.970,64.684 L65.366,64.684 C64.576,64.684 63.936,64.040 63.936,63.247 C63.936,62.453 64.576,61.808 65.366,61.808 L83.970,61.808 L83.970,58.933 L65.366,58.933 C64.576,58.933 63.936,58.290 63.936,57.497 C63.936,56.703 64.576,56.059 65.366,56.059 L83.970,56.059 L83.970,53.185 L65.366,53.185 C64.576,53.185 63.936,52.540 63.936,51.746 C63.936,50.952 64.576,50.309 65.366,50.309 L83.970,50.309 L83.970,47.434 L65.366,47.434 C64.576,47.434 63.936,46.791 63.936,45.997 C63.936,45.202 64.576,44.559 65.366,44.559 L83.970,44.559 L83.970,41.684 L65.366,41.684 C64.576,41.684 63.936,41.041 63.936,40.246 C63.936,39.452 64.576,38.810 65.366,38.810 L83.970,38.810 L83.970,35.934 L65.366,35.934 C64.576,35.934 63.936,35.291 63.936,34.497 C63.936,33.703 64.576,33.059 65.366,33.059 L83.970,33.059 L83.970,30.184 L65.366,30.184 C64.576,30.184 63.936,29.541 63.936,28.747 C63.936,27.953 64.576,27.310 65.366,27.310 L83.970,27.310 L83.970,22.996 L65.366,22.996 C64.576,22.996 63.936,22.353 63.936,21.559 C63.936,20.765 64.576,20.123 65.366,20.123 L68.229,20.123 L68.229,7.184 C68.229,6.390 68.869,5.748 69.659,5.748 C70.450,5.748 71.091,6.390 71.091,7.184 L71.091,20.123 L73.952,20.123 L73.952,14.372 C73.952,13.578 74.594,12.935 75.384,12.935 C76.174,12.935 76.815,13.578 76.815,14.372 L76.815,20.123 L85.402,20.123 C86.191,20.123 86.832,20.765 86.832,21.559 L86.832,89.121 L89.694,89.121 C90.485,89.121 91.125,89.764 91.125,90.558 C91.125,91.352 90.485,91.997 89.694,91.997 ZM58.211,2.872 L15.280,2.872 L15.280,5.748 L58.211,5.748 L58.211,2.872 ZM58.211,8.622 L15.280,8.622 L15.280,76.183 L58.211,76.183 L58.211,8.622 ZM58.211,79.059 L15.280,79.059 L15.280,89.121 L18.142,89.121 L18.142,83.371 C18.142,82.577 18.783,81.934 19.573,81.934 C20.363,81.934 21.005,82.577 21.005,83.371 L21.005,89.121 L23.866,89.121 L23.866,83.371 C23.866,82.577 24.507,81.934 25.298,81.934 C26.088,81.934 26.728,82.577 26.728,83.371 L26.728,89.121 L29.590,89.121 L29.590,83.371 C29.590,82.577 30.231,81.934 31.021,81.934 C31.812,81.934 32.453,82.577 32.453,83.371 L32.453,89.121 L35.315,89.121 L35.315,83.371 C35.315,82.577 35.955,81.934 36.746,81.934 C37.536,81.934 38.176,82.577 38.176,83.371 L38.176,89.121 L41.039,89.121 L41.039,83.371 C41.039,82.577 41.680,81.934 42.470,81.934 C43.260,81.934 43.901,82.577 43.901,83.371 L43.901,89.121 L46.763,89.121 L46.763,83.371 C46.763,82.577 47.403,81.934 48.194,81.934 C48.984,81.934 49.625,82.577 49.625,83.371 L49.625,89.121 L52.487,89.121 L52.487,83.371 C52.487,82.577 53.128,81.934 53.918,81.934 C54.709,81.934 55.349,82.577 55.349,83.371 L55.349,89.121 L58.211,89.121 L58.211,79.059 ZM19.573,11.497 C20.363,11.497 21.005,12.140 21.005,12.935 L21.005,71.871 C21.005,72.665 20.363,73.308 19.573,73.308 C18.783,73.308 18.142,72.665 18.142,71.871 L18.142,12.935 C18.142,12.140 18.783,11.497 19.573,11.497 ZM25.298,11.497 C26.088,11.497 26.728,12.140 26.728,12.935 L26.728,71.871 C26.728,72.665 26.088,73.308 25.298,73.308 C24.507,73.308 23.866,72.665 23.866,71.871 L23.866,12.935 C23.866,12.140 24.507,11.497 25.298,11.497 ZM31.021,11.497 C31.812,11.497 32.453,12.140 32.453,12.935 L32.453,71.871 C32.453,72.665 31.812,73.308 31.021,73.308 C30.231,73.308 29.590,72.665 29.590,71.871 L29.590,12.935 C29.590,12.140 30.231,11.497 31.021,11.497 ZM36.746,11.497 C37.536,11.497 38.176,12.140 38.176,12.935 L38.176,71.871 C38.176,72.665 37.536,73.308 36.746,73.308 C35.955,73.308 35.315,72.665 35.315,71.871 L35.315,12.935 C35.315,12.140 35.955,11.497 36.746,11.497 ZM42.470,11.497 C43.260,11.497 43.901,12.140 43.901,12.935 L43.901,71.871 C43.901,72.665 43.260,73.308 42.470,73.308 C41.680,73.308 41.039,72.665 41.039,71.871 L41.039,12.935 C41.039,12.140 41.680,11.497 42.470,11.497 ZM48.194,11.497 C48.984,11.497 49.625,12.140 49.625,12.935 L49.625,71.871 C49.625,72.665 48.984,73.308 48.194,73.308 C47.403,73.308 46.763,72.665 46.763,71.871 L46.763,12.935 C46.763,12.140 47.403,11.497 48.194,11.497 ZM53.918,11.497 C54.709,11.497 55.349,12.140 55.349,12.935 L55.349,71.871 C55.349,72.665 54.709,73.308 53.918,73.308 C53.128,73.308 52.487,72.665 52.487,71.871 L52.487,12.935 C52.487,12.140 53.128,11.497 53.918,11.497 Z"
       transform="translate(17.19 9.35)"
       class="cls-1"
       id="path8" />
  </g>
</svg>
