<svg xmlns="http://www.w3.org/2000/svg" xmlns:xlink="http://www.w3.org/1999/xlink" preserveAspectRatio="xMidYMid" width="54.97" height="70" viewBox="0 0 54.97 70">
  <defs>
    <style>
      .cls-1 {
        fill: #fff;
        fill-rule: evenodd;
      }
    </style>
  </defs>
  <path d="M5.714,69.999 L5.714,64.166 L-0.014,64.166 L-0.014,-0.001 L49.242,-0.001 L49.242,17.015 L54.969,22.848 L54.969,69.999 L5.714,69.999 ZM46.955,2.335 L2.280,2.335 L2.280,61.830 L5.714,61.830 L5.714,5.833 L38.262,5.833 L46.955,14.685 L46.955,2.335 ZM38.933,9.814 L38.933,22.165 L51.060,22.165 L38.933,9.814 ZM52.683,24.501 L36.647,24.501 L36.647,8.169 L8.008,8.169 L8.008,67.663 L52.683,67.663 L52.683,24.501 ZM16.022,19.836 L27.478,19.836 C28.111,19.836 28.625,20.353 28.625,20.996 C28.625,21.647 28.111,22.165 27.478,22.165 L16.022,22.165 C15.391,22.165 14.875,21.647 14.875,20.996 C14.875,20.353 15.391,19.836 16.022,19.836 ZM16.022,29.166 L44.661,29.166 C45.294,29.166 45.808,29.690 45.808,30.334 C45.808,30.977 45.294,31.502 44.661,31.502 L16.022,31.502 C15.391,31.502 14.875,30.977 14.875,30.334 C14.875,29.690 15.391,29.166 16.022,29.166 ZM16.022,38.496 L44.661,38.496 C45.294,38.496 45.808,39.021 45.808,39.664 C45.808,40.310 45.294,40.832 44.661,40.832 L16.022,40.832 C15.391,40.832 14.875,40.310 14.875,39.664 C14.875,39.021 15.391,38.496 16.022,38.496 ZM16.022,47.834 L44.661,47.834 C45.294,47.834 45.808,48.352 45.808,49.002 C45.808,49.645 45.294,50.163 44.661,50.163 L16.022,50.163 C15.391,50.163 14.875,49.645 14.875,49.002 C14.875,48.352 15.391,47.834 16.022,47.834 ZM16.022,57.164 L44.661,57.164 C45.294,57.164 45.808,57.690 45.808,58.333 C45.808,58.976 45.294,59.500 44.661,59.500 L16.022,59.500 C15.391,59.500 14.875,58.976 14.875,58.333 C14.875,57.690 15.391,57.164 16.022,57.164 Z" class="cls-1"/>
</svg>
