<svg xmlns="http://www.w3.org/2000/svg" xmlns:xlink="http://www.w3.org/1999/xlink" preserveAspectRatio="xMidYMid" width="88" height="55" viewBox="0 0 88 55">
  <defs>
    <style>
      .cls-1 {
        fill: #fff;
        fill-rule: evenodd;
      }
    </style>
  </defs>
  <path d="M57.228,37.755 C57.988,37.755 58.605,38.364 58.605,39.117 C58.605,39.868 57.988,40.477 57.228,40.477 L36.651,40.477 C35.890,40.477 35.273,39.868 35.273,39.117 C35.273,38.364 35.890,37.755 36.651,37.755 L57.228,37.755 ZM33.712,28.861 C33.359,28.861 33.007,28.728 32.738,28.461 L25.389,21.201 C24.851,20.669 24.851,19.807 25.389,19.275 C25.927,18.744 26.799,18.744 27.337,19.275 L33.712,25.574 L45.965,13.468 C46.503,12.935 47.376,12.935 47.914,13.468 C48.452,13.999 48.452,14.861 47.914,15.392 L34.686,28.461 C34.417,28.728 34.064,28.861 33.712,28.861 ZM86.622,46.286 L82.118,46.286 C82.119,46.317 82.121,46.346 82.121,46.376 C82.121,51.131 78.206,54.999 73.394,54.999 C68.583,54.999 64.668,51.131 64.668,46.376 C64.668,46.346 64.670,46.317 64.670,46.286 L33.618,46.286 C33.618,46.317 33.620,46.346 33.620,46.376 C33.620,51.131 29.705,54.999 24.893,54.999 C20.082,54.999 16.167,51.131 16.167,46.376 C16.167,46.346 16.169,46.317 16.169,46.286 L8.727,46.286 C7.156,46.286 5.879,45.024 5.879,43.472 L5.879,40.477 L1.378,40.477 C0.617,40.477 -0.000,39.868 -0.000,39.117 C-0.000,38.364 0.617,37.755 1.378,37.755 L14.605,37.755 C15.366,37.755 15.983,38.364 15.983,39.117 C15.983,39.868 15.366,40.477 14.605,40.477 L8.635,40.477 L8.635,43.472 C8.635,43.523 8.676,43.563 8.727,43.563 L16.647,43.563 C17.830,40.187 21.079,37.755 24.893,37.755 C28.708,37.755 31.957,40.187 33.140,43.563 L61.729,43.563 L61.729,33.307 C61.729,32.556 62.346,31.947 63.106,31.947 C63.867,31.947 64.484,32.556 64.484,33.307 L64.484,43.564 L65.148,43.564 C66.331,40.187 69.580,37.755 73.394,37.755 C77.209,37.755 80.458,40.187 81.641,43.564 L85.244,43.564 L85.244,37.574 L83.683,37.574 C81.302,37.574 79.365,35.660 79.365,33.307 L79.365,30.404 C79.365,29.651 79.982,29.042 80.743,29.042 L85.028,29.042 C84.444,27.255 82.746,25.958 80.746,25.956 C80.745,25.956 80.743,25.956 80.742,25.956 C80.741,25.956 80.740,25.956 80.738,25.956 L64.484,25.956 L64.484,27.499 C64.484,28.251 63.867,28.861 63.106,28.861 C62.346,28.861 61.729,28.251 61.729,27.499 L61.729,2.813 C61.729,2.762 61.687,2.722 61.637,2.722 L8.727,2.722 C8.676,2.722 8.635,2.762 8.635,2.813 L8.635,27.499 C8.635,28.251 8.018,28.861 7.257,28.861 C6.496,28.861 5.879,28.251 5.879,27.499 L5.879,2.813 C5.879,1.261 7.156,-0.001 8.727,-0.001 L61.637,-0.001 C63.207,-0.001 64.484,1.261 64.484,2.813 L64.484,5.808 L74.864,5.808 C78.055,5.808 80.651,8.373 80.651,11.526 L80.651,12.978 C80.651,13.632 80.184,14.178 79.561,14.309 L81.840,23.315 C85.323,23.839 88.000,26.818 88.000,30.404 L88.000,44.924 C88.000,45.676 87.383,46.286 86.622,46.286 ZM24.893,40.477 C21.601,40.477 18.923,43.124 18.923,46.376 C18.923,49.630 21.601,52.276 24.893,52.276 C28.186,52.276 30.864,49.630 30.864,46.376 C30.864,43.124 28.186,40.477 24.893,40.477 ZM73.394,40.477 C70.102,40.477 67.424,43.124 67.424,46.376 C67.424,49.630 70.102,52.276 73.394,52.276 C76.687,52.276 79.365,49.630 79.365,46.376 C79.365,43.124 76.687,40.477 73.394,40.477 ZM77.896,11.526 C77.896,9.874 76.536,8.530 74.864,8.530 L64.484,8.530 L64.484,11.616 L77.896,11.616 L77.896,11.526 ZM76.728,14.339 L64.484,14.339 L64.484,23.233 L78.978,23.233 L76.728,14.339 ZM85.244,31.765 L82.121,31.765 L82.121,33.307 C82.121,34.159 82.822,34.850 83.683,34.850 L85.244,34.850 L85.244,31.765 ZM73.394,49.190 C71.824,49.190 70.547,47.928 70.547,46.376 C70.547,44.825 71.824,43.563 73.394,43.563 C74.965,43.563 76.242,44.825 76.242,46.376 C76.242,47.928 74.965,49.190 73.394,49.190 ZM24.893,49.190 C23.323,49.190 22.046,47.928 22.046,46.376 C22.046,44.825 23.323,43.563 24.893,43.563 C26.464,43.563 27.741,44.825 27.741,46.376 C27.741,47.928 26.464,49.190 24.893,49.190 ZM23.332,33.307 C23.332,34.060 22.715,34.669 21.954,34.669 L4.317,34.669 C3.556,34.669 2.939,34.060 2.939,33.307 C2.939,32.556 3.556,31.947 4.317,31.947 L21.954,31.947 C22.715,31.947 23.332,32.556 23.332,33.307 Z" class="cls-1"/>
</svg>
