<svg xmlns="http://www.w3.org/2000/svg" xmlns:xlink="http://www.w3.org/1999/xlink" preserveAspectRatio="xMidYMid" width="22" height="32" viewBox="0 0 22 32">
  <defs>
    <style>
      .cls-1 {
        fill: #fc850f;
        fill-rule: evenodd;
      }
    </style>
  </defs>
  <path d="M19.805,19.049 L11.003,32.004 L2.183,19.032 C-1.107,14.564 -0.628,7.192 3.217,3.272 C5.297,1.156 8.060,-0.012 11.003,-0.012 C13.942,-0.012 16.706,1.156 18.785,3.272 C22.631,7.192 23.110,14.564 19.805,19.049 ZM17.973,4.099 C16.109,2.205 13.635,1.160 11.003,1.160 C8.369,1.160 5.894,2.205 4.030,4.099 C0.558,7.637 0.131,14.295 3.114,18.349 L11.003,29.952 L18.875,18.367 C21.874,14.295 21.445,7.637 17.973,4.099 ZM11.103,15.191 C8.887,15.191 7.085,13.356 7.085,11.098 C7.085,8.843 8.887,7.006 11.103,7.006 C13.318,7.006 15.120,8.843 15.120,11.098 C15.120,13.356 13.318,15.191 11.103,15.191 ZM11.103,8.175 C9.520,8.175 8.234,9.487 8.234,11.098 C8.234,12.711 9.520,14.022 11.103,14.022 C12.685,14.022 13.973,12.711 13.973,11.098 C13.973,9.487 12.685,8.175 11.103,8.175 Z" class="cls-1"/>
</svg>
