<svg xmlns="http://www.w3.org/2000/svg" xmlns:xlink="http://www.w3.org/1999/xlink" preserveAspectRatio="xMidYMid" width="24" height="25" viewBox="0 0 24 25">
  <defs>
    <style>
      .cls-1 {
        fill: #fc850f;
        fill-rule: evenodd;
      }
    </style>
  </defs>
  <path d="M23.346,21.640 L22.219,22.813 C20.826,24.263 19.289,24.990 17.636,24.990 C17.167,24.990 16.688,24.931 16.202,24.814 C14.364,24.374 12.406,23.082 10.387,20.979 L3.842,14.171 C1.821,12.068 0.583,10.029 0.157,8.116 C-0.354,5.822 0.294,3.714 2.080,1.855 L3.208,0.681 C3.894,-0.033 4.931,-0.193 5.787,0.279 C7.478,1.208 9.309,4.438 9.386,4.572 C9.711,5.171 9.816,5.783 9.677,6.302 C9.572,6.695 9.336,7.011 8.988,7.225 C8.444,7.699 7.810,8.283 7.710,8.429 C6.999,9.523 7.082,10.393 7.993,11.342 L13.103,16.662 C13.206,16.769 13.307,16.861 13.410,16.945 C13.431,16.963 13.458,16.983 13.481,17.004 C14.253,17.611 14.998,17.592 15.904,16.951 C16.041,16.849 16.604,16.189 17.058,15.624 C17.265,15.264 17.571,15.016 17.947,14.910 C18.444,14.765 19.033,14.872 19.603,15.208 C19.739,15.291 22.842,17.198 23.735,18.955 C24.190,19.846 24.033,20.924 23.346,21.640 ZM22.949,19.389 C22.173,17.865 19.186,16.029 19.157,16.011 C18.809,15.805 18.444,15.725 18.184,15.803 C18.023,15.848 17.901,15.952 17.812,16.120 L17.766,16.189 C17.449,16.582 16.682,17.524 16.404,17.720 C16.086,17.942 15.776,18.104 15.470,18.213 C16.110,18.496 16.858,18.729 17.686,18.819 C17.932,18.847 18.110,19.073 18.084,19.328 C18.060,19.566 17.867,19.743 17.642,19.743 C17.627,19.743 17.610,19.743 17.594,19.740 C14.527,19.410 12.519,17.381 12.434,17.292 C12.417,17.277 12.410,17.254 12.397,17.237 L7.602,12.248 C7.591,12.240 7.578,12.237 7.569,12.228 C7.464,12.140 5.059,10.044 4.737,6.824 C4.713,6.570 4.889,6.341 5.135,6.314 C5.380,6.293 5.598,6.475 5.624,6.729 C5.720,7.677 6.032,8.525 6.404,9.235 C6.491,8.802 6.682,8.359 6.975,7.908 C7.164,7.616 8.068,6.821 8.447,6.491 L8.514,6.440 C8.675,6.348 8.775,6.222 8.818,6.055 C8.890,5.783 8.814,5.403 8.614,5.037 C8.598,5.011 6.836,1.905 5.370,1.098 C5.176,0.989 4.966,0.937 4.759,0.937 C4.423,0.937 4.090,1.074 3.838,1.337 L2.708,2.511 C1.133,4.153 0.580,5.917 1.024,7.908 C1.411,9.650 2.571,11.536 4.472,13.515 L11.015,20.326 C12.916,22.302 14.729,23.509 16.402,23.912 C18.316,24.374 20.013,23.801 21.589,22.160 L22.718,20.986 C23.125,20.560 23.218,19.918 22.949,19.389 ZM14.383,10.663 L18.651,10.663 C18.896,10.663 19.094,10.871 19.094,11.126 C19.094,11.381 18.896,11.590 18.651,11.590 L13.310,11.590 C13.251,11.590 13.194,11.579 13.140,11.554 C13.031,11.509 12.945,11.418 12.899,11.303 C12.877,11.247 12.864,11.187 12.864,11.126 L12.864,5.570 C12.864,5.312 13.064,5.106 13.310,5.106 C13.555,5.106 13.755,5.312 13.755,5.570 L13.755,10.009 L20.561,2.927 C20.735,2.745 21.015,2.745 21.189,2.927 C21.365,3.108 21.365,3.399 21.189,3.581 L14.383,10.663 Z" class="cls-1"/>
</svg>
