<svg xmlns="http://www.w3.org/2000/svg" xmlns:xlink="http://www.w3.org/1999/xlink" preserveAspectRatio="xMidYMid" width="27" height="27" viewBox="0 0 27 27">
  <defs>
    <style>
      .cls-1 {
        fill: #fc850f;
        fill-rule: evenodd;
      }
    </style>
  </defs>
  <path d="M13.500,26.999 C6.056,26.999 -0.000,20.943 -0.000,13.498 C-0.000,6.056 6.056,-0.001 13.500,-0.001 C20.944,-0.001 27.000,6.056 27.000,13.498 C27.000,20.943 20.944,26.999 13.500,26.999 ZM13.500,0.900 C6.552,0.900 0.901,6.550 0.901,13.498 C0.901,20.447 6.552,26.097 13.500,26.097 C20.448,26.097 26.099,20.447 26.099,13.498 C26.099,6.550 20.448,0.900 13.500,0.900 ZM23.401,13.895 L22.950,13.895 C22.702,13.895 22.500,13.693 22.500,13.443 C22.500,13.196 22.702,12.994 22.950,12.994 L23.401,12.994 C23.649,12.994 23.849,13.196 23.849,13.443 C23.849,13.693 23.649,13.895 23.401,13.895 ZM20.500,20.894 C20.384,20.894 20.270,20.850 20.182,20.763 L19.863,20.445 C19.687,20.268 19.687,19.986 19.863,19.809 C20.039,19.631 20.325,19.631 20.500,19.809 L20.819,20.125 C20.995,20.302 20.995,20.588 20.819,20.763 C20.731,20.850 20.614,20.894 20.500,20.894 ZM20.500,7.081 C20.412,7.169 20.298,7.212 20.182,7.212 C20.068,7.212 19.951,7.169 19.863,7.081 C19.687,6.904 19.687,6.619 19.863,6.444 L20.182,6.125 C20.357,5.949 20.643,5.949 20.819,6.125 C20.995,6.300 20.995,6.587 20.819,6.761 L20.500,7.081 ZM13.500,15.245 C12.663,15.245 11.964,14.668 11.764,13.895 L8.549,13.895 C8.301,13.895 8.099,13.693 8.099,13.443 C8.099,13.196 8.301,12.994 8.549,12.994 L11.764,12.994 C11.927,12.365 12.421,11.873 13.049,11.708 L13.049,7.145 C13.049,6.896 13.252,6.694 13.500,6.694 C13.748,6.694 13.951,6.896 13.951,7.145 L13.951,11.708 C14.724,11.910 15.299,12.606 15.299,13.443 C15.299,14.437 14.493,15.245 13.500,15.245 ZM13.500,12.546 C13.003,12.546 12.599,12.948 12.599,13.443 C12.599,13.940 13.003,14.345 13.500,14.345 C13.997,14.345 14.401,13.940 14.401,13.443 C14.401,12.948 13.997,12.546 13.500,12.546 ZM13.500,4.444 C13.252,4.444 13.049,4.244 13.049,3.993 L13.049,3.545 C13.049,3.295 13.252,3.094 13.500,3.094 C13.748,3.094 13.951,3.295 13.951,3.545 L13.951,3.993 C13.951,4.244 13.748,4.444 13.500,4.444 ZM6.818,20.763 C6.730,20.850 6.616,20.894 6.500,20.894 C6.385,20.894 6.269,20.850 6.181,20.763 C6.005,20.588 6.005,20.302 6.181,20.125 L6.500,19.809 C6.675,19.633 6.961,19.631 7.137,19.809 C7.312,19.986 7.312,20.268 7.137,20.445 L6.818,20.763 ZM6.818,7.212 C6.702,7.212 6.587,7.169 6.500,7.081 L6.181,6.761 C6.005,6.587 6.005,6.300 6.181,6.125 C6.357,5.949 6.643,5.949 6.818,6.125 L7.137,6.444 C7.312,6.619 7.312,6.904 7.137,7.081 C7.049,7.169 6.932,7.212 6.818,7.212 ZM13.500,22.443 C13.748,22.443 13.951,22.647 13.951,22.894 L13.951,23.345 C13.951,23.593 13.748,23.795 13.500,23.795 C13.252,23.795 13.049,23.593 13.049,23.345 L13.049,22.894 C13.049,22.647 13.252,22.443 13.500,22.443 ZM4.049,13.895 L3.599,13.895 C3.351,13.895 3.151,13.693 3.151,13.443 C3.151,13.196 3.351,12.994 3.599,12.994 L4.049,12.994 C4.298,12.994 4.500,13.196 4.500,13.443 C4.500,13.693 4.298,13.895 4.049,13.895 Z" class="cls-1"/>
</svg>
